<svg class="main-svg" xmlns="http://www.w3.org/2000/svg" xmlns:xlink="http://www.w3.org/1999/xlink" width="936" height="615" style="" viewBox="0 0 936 615"><rect x="0" y="0" width="936" height="615" style="fill: rgb(250, 250, 247); fill-opacity: 1;"/><defs id="defs-56467a"><g class="clips"><clipPath id="clip56467axyplot" class="plotclip"><rect width="672" height="517"/></clipPath><clipPath class="axesclip" id="clip56467ax"><rect x="78" y="0" width="672" height="615"/></clipPath><clipPath class="axesclip" id="clip56467ay"><rect x="0" y="34" width="936" height="517"/></clipPath><clipPath class="axesclip" id="clip56467axy"><rect x="78" y="34" width="672" height="517"/></clipPath></g><g class="gradients"/><g class="patterns"/></defs><g class="bglayer"/><g class="layer-below"><g class="imagelayer"/><g class="shapelayer"/></g><g class="cartesianlayer"><g class="subplot xy"><g class="layer-subplot"><g class="shapelayer"/><g class="imagelayer"/></g><g class="minor-gridlayer"><g class="x"/><g class="y"/></g><g class="gridlayer"><g class="x"/><g class="y"/></g><g class="zerolinelayer"/><g class="layer-between"><g class="shapelayer"/><g class="imagelayer"/></g><path class="xlines-below"/><path class="ylines-below"/><g class="overlines-below"/><g class="xaxislayer-below"/><g class="yaxislayer-below"/><g class="overaxes-below"/><g class="overplot"><g class="xy" transform="translate(78,34)" clip-path="url(#clip56467axyplot)"><g class="scatterlayer mlayer"><g class="trace scatter trace163b49" style="stroke-miterlimit: 2; opacity: 1;"><g class="fills"/><g class="errorbars"/><g class="lines"><path class="js-line" d="M0,480.69Q13.21,471.43 18.67,463.4C26.45,451.95 31.52,432.79 37.33,415.22C44.1,394.75 48.84,366.86 56,347.64C61.64,332.51 67.26,310 74.67,308.39C80.22,307.18 87.99,316.16 93.33,324.08C101.72,336.53 105.67,362.64 112,381.34C118.12,399.44 122.87,421.58 130.67,434.56C136.12,443.63 142.39,451.38 149.33,454.79C155.06,457.6 161.78,456.49 168,456.4C174.23,456.31 180.46,455.1 186.67,454.26C192.9,453.42 199.14,452.62 205.33,451.35C211.58,450.06 218.07,449.51 224,446.56C230.59,443.28 237.22,438.95 242.67,431.7C250.49,421.29 255.78,404.11 261.33,386.26C268.77,362.32 273.94,329.52 280,299.88C286.4,268.6 291.86,232.57 298.67,203.2C304.46,178.22 308.93,150.39 317.33,134.45C322.67,124.31 330.03,112.1 336,112.5C342.53,112.93 349.26,129.08 354.67,141.48C362.67,159.81 367.43,188.54 373.33,214.45C379.96,243.58 385.34,278.81 392,307.84C397.88,333.5 401.89,364.11 410.67,379.9C415.96,389.42 423.81,400.55 429.33,399.49C436.86,398.04 442.6,371.97 448,352.75C456.05,324.1 460.52,279.69 466.67,242.52C472.96,204.52 478.1,160.4 485.33,127.19C490.94,101.4 493.92,67.7 504,59.28C509.2,54.93 517.46,54.03 522.67,57.59C532.52,64.32 535.73,97.44 541.33,122.03C548.6,153.95 553.71,196.78 560,233.5C566.16,269.41 570.9,311.4 578.67,339.98C584.13,360.07 588.84,380.41 597.33,390C602.66,396.02 609.58,398.2 616,399.68C622.05,401.07 628.45,399.58 634.67,399.19C640.9,398.8 647.11,397.95 653.33,397.31Q659.55,396.67 672,395.36" style="vector-effect: none; fill: none; stroke: rgb(0, 114, 178); stroke-opacity: 1; stroke-width: 1.8px; opacity: 1;"/></g><g class="points"><path class="point" transform="translate(0,480.69)" d="M3.6,0A3.6,3.6 0 1,1 0,-3.6A3.6,3.6 0 0,1 3.6,0Z" style="opacity: 1; stroke-width: 1px; fill: rgb(0, 114, 178); fill-opacity: 1; stroke: rgb(252, 252, 249); stroke-opacity: 1;"/><path class="point" transform="translate(18.67,463.4)" d="M3.6,0A3.6,3.6 0 1,1 0,-3.6A3.6,3.6 0 0,1 3.6,0Z" style="opacity: 1; stroke-width: 1px; fill: rgb(0, 114, 178); fill-opacity: 1; stroke: rgb(252, 252, 249); stroke-opacity: 1;"/><path class="point" transform="translate(37.33,415.22)" d="M3.6,0A3.6,3.6 0 1,1 0,-3.6A3.6,3.6 0 0,1 3.6,0Z" style="opacity: 1; stroke-width: 1px; fill: rgb(0, 114, 178); fill-opacity: 1; stroke: rgb(252, 252, 249); stroke-opacity: 1;"/><path class="point" transform="translate(56,347.64)" d="M3.6,0A3.6,3.6 0 1,1 0,-3.6A3.6,3.6 0 0,1 3.6,0Z" style="opacity: 1; stroke-width: 1px; fill: rgb(0, 114, 178); fill-opacity: 1; stroke: rgb(252, 252, 249); stroke-opacity: 1;"/><path class="point" transform="translate(74.67,308.39)" d="M3.6,0A3.6,3.6 0 1,1 0,-3.6A3.6,3.6 0 0,1 3.6,0Z" style="opacity: 1; stroke-width: 1px; fill: rgb(0, 114, 178); fill-opacity: 1; stroke: rgb(252, 252, 249); stroke-opacity: 1;"/><path class="point" transform="translate(93.33,324.08)" d="M3.6,0A3.6,3.6 0 1,1 0,-3.6A3.6,3.6 0 0,1 3.6,0Z" style="opacity: 1; stroke-width: 1px; fill: rgb(0, 114, 178); fill-opacity: 1; stroke: rgb(252, 252, 249); stroke-opacity: 1;"/><path class="point" transform="translate(112,381.34)" d="M3.6,0A3.6,3.6 0 1,1 0,-3.6A3.6,3.6 0 0,1 3.6,0Z" style="opacity: 1; stroke-width: 1px; fill: rgb(0, 114, 178); fill-opacity: 1; stroke: rgb(252, 252, 249); stroke-opacity: 1;"/><path class="point" transform="translate(130.67,434.56)" d="M3.6,0A3.6,3.6 0 1,1 0,-3.6A3.6,3.6 0 0,1 3.6,0Z" style="opacity: 1; stroke-width: 1px; fill: rgb(0, 114, 178); fill-opacity: 1; stroke: rgb(252, 252, 249); stroke-opacity: 1;"/><path class="point" transform="translate(149.33,454.79)" d="M3.6,0A3.6,3.6 0 1,1 0,-3.6A3.6,3.6 0 0,1 3.6,0Z" style="opacity: 1; stroke-width: 1px; fill: rgb(0, 114, 178); fill-opacity: 1; stroke: rgb(252, 252, 249); stroke-opacity: 1;"/><path class="point" transform="translate(168,456.4)" d="M3.6,0A3.6,3.6 0 1,1 0,-3.6A3.6,3.6 0 0,1 3.6,0Z" style="opacity: 1; stroke-width: 1px; fill: rgb(0, 114, 178); fill-opacity: 1; stroke: rgb(252, 252, 249); stroke-opacity: 1;"/><path class="point" transform="translate(186.67,454.26)" d="M3.6,0A3.6,3.6 0 1,1 0,-3.6A3.6,3.6 0 0,1 3.6,0Z" style="opacity: 1; stroke-width: 1px; fill: rgb(0, 114, 178); fill-opacity: 1; stroke: rgb(252, 252, 249); stroke-opacity: 1;"/><path class="point" transform="translate(205.33,451.35)" d="M3.6,0A3.6,3.6 0 1,1 0,-3.6A3.6,3.6 0 0,1 3.6,0Z" style="opacity: 1; stroke-width: 1px; fill: rgb(0, 114, 178); fill-opacity: 1; stroke: rgb(252, 252, 249); stroke-opacity: 1;"/><path class="point" transform="translate(224,446.56)" d="M3.6,0A3.6,3.6 0 1,1 0,-3.6A3.6,3.6 0 0,1 3.6,0Z" style="opacity: 1; stroke-width: 1px; fill: rgb(0, 114, 178); fill-opacity: 1; stroke: rgb(252, 252, 249); stroke-opacity: 1;"/><path class="point" transform="translate(242.67,431.7)" d="M3.6,0A3.6,3.6 0 1,1 0,-3.6A3.6,3.6 0 0,1 3.6,0Z" style="opacity: 1; stroke-width: 1px; fill: rgb(0, 114, 178); fill-opacity: 1; stroke: rgb(252, 252, 249); stroke-opacity: 1;"/><path class="point" transform="translate(261.33,386.26)" d="M3.6,0A3.6,3.6 0 1,1 0,-3.6A3.6,3.6 0 0,1 3.6,0Z" style="opacity: 1; stroke-width: 1px; fill: rgb(0, 114, 178); fill-opacity: 1; stroke: rgb(252, 252, 249); stroke-opacity: 1;"/><path class="point" transform="translate(280,299.88)" d="M3.6,0A3.6,3.6 0 1,1 0,-3.6A3.6,3.6 0 0,1 3.6,0Z" style="opacity: 1; stroke-width: 1px; fill: rgb(0, 114, 178); fill-opacity: 1; stroke: rgb(252, 252, 249); stroke-opacity: 1;"/><path class="point" transform="translate(298.67,203.2)" d="M3.6,0A3.6,3.6 0 1,1 0,-3.6A3.6,3.6 0 0,1 3.6,0Z" style="opacity: 1; stroke-width: 1px; fill: rgb(0, 114, 178); fill-opacity: 1; stroke: rgb(252, 252, 249); stroke-opacity: 1;"/><path class="point" transform="translate(317.33,134.45)" d="M3.6,0A3.6,3.6 0 1,1 0,-3.6A3.6,3.6 0 0,1 3.6,0Z" style="opacity: 1; stroke-width: 1px; fill: rgb(0, 114, 178); fill-opacity: 1; stroke: rgb(252, 252, 249); stroke-opacity: 1;"/><path class="point" transform="translate(336,112.5)" d="M3.6,0A3.6,3.6 0 1,1 0,-3.6A3.6,3.6 0 0,1 3.6,0Z" style="opacity: 1; stroke-width: 1px; fill: rgb(0, 114, 178); fill-opacity: 1; stroke: rgb(252, 252, 249); stroke-opacity: 1;"/><path class="point" transform="translate(354.67,141.48)" d="M3.6,0A3.6,3.6 0 1,1 0,-3.6A3.6,3.6 0 0,1 3.6,0Z" style="opacity: 1; stroke-width: 1px; fill: rgb(0, 114, 178); fill-opacity: 1; stroke: rgb(252, 252, 249); stroke-opacity: 1;"/><path class="point" transform="translate(373.33,214.45)" d="M3.6,0A3.6,3.6 0 1,1 0,-3.6A3.6,3.6 0 0,1 3.6,0Z" style="opacity: 1; stroke-width: 1px; fill: rgb(0, 114, 178); fill-opacity: 1; stroke: rgb(252, 252, 249); stroke-opacity: 1;"/><path class="point" transform="translate(392,307.84)" d="M3.6,0A3.6,3.6 0 1,1 0,-3.6A3.6,3.6 0 0,1 3.6,0Z" style="opacity: 1; stroke-width: 1px; fill: rgb(0, 114, 178); fill-opacity: 1; stroke: rgb(252, 252, 249); stroke-opacity: 1;"/><path class="point" transform="translate(410.67,379.9)" d="M3.6,0A3.6,3.6 0 1,1 0,-3.6A3.6,3.6 0 0,1 3.6,0Z" style="opacity: 1; stroke-width: 1px; fill: rgb(0, 114, 178); fill-opacity: 1; stroke: rgb(252, 252, 249); stroke-opacity: 1;"/><path class="point" transform="translate(429.33,399.49)" d="M3.6,0A3.6,3.6 0 1,1 0,-3.6A3.6,3.6 0 0,1 3.6,0Z" style="opacity: 1; stroke-width: 1px; fill: rgb(0, 114, 178); fill-opacity: 1; stroke: rgb(252, 252, 249); stroke-opacity: 1;"/><path class="point" transform="translate(448,352.75)" d="M3.6,0A3.6,3.6 0 1,1 0,-3.6A3.6,3.6 0 0,1 3.6,0Z" style="opacity: 1; stroke-width: 1px; fill: rgb(0, 114, 178); fill-opacity: 1; stroke: rgb(252, 252, 249); stroke-opacity: 1;"/><path class="point" transform="translate(466.67,242.52)" d="M3.6,0A3.6,3.6 0 1,1 0,-3.6A3.6,3.6 0 0,1 3.6,0Z" style="opacity: 1; stroke-width: 1px; fill: rgb(0, 114, 178); fill-opacity: 1; stroke: rgb(252, 252, 249); stroke-opacity: 1;"/><path class="point" transform="translate(485.33,127.19)" d="M3.6,0A3.6,3.6 0 1,1 0,-3.6A3.6,3.6 0 0,1 3.6,0Z" style="opacity: 1; stroke-width: 1px; fill: rgb(0, 114, 178); fill-opacity: 1; stroke: rgb(252, 252, 249); stroke-opacity: 1;"/><path class="point" transform="translate(504,59.28)" d="M3.6,0A3.6,3.6 0 1,1 0,-3.6A3.6,3.6 0 0,1 3.6,0Z" style="opacity: 1; stroke-width: 1px; fill: rgb(0, 114, 178); fill-opacity: 1; stroke: rgb(252, 252, 249); stroke-opacity: 1;"/><path class="point" transform="translate(522.67,57.59)" d="M3.6,0A3.6,3.6 0 1,1 0,-3.6A3.6,3.6 0 0,1 3.6,0Z" style="opacity: 1; stroke-width: 1px; fill: rgb(0, 114, 178); fill-opacity: 1; stroke: rgb(252, 252, 249); stroke-opacity: 1;"/><path class="point" transform="translate(541.33,122.03)" d="M3.6,0A3.6,3.6 0 1,1 0,-3.6A3.6,3.6 0 0,1 3.6,0Z" style="opacity: 1; stroke-width: 1px; fill: rgb(0, 114, 178); fill-opacity: 1; stroke: rgb(252, 252, 249); stroke-opacity: 1;"/><path class="point" transform="translate(560,233.5)" d="M3.6,0A3.6,3.6 0 1,1 0,-3.6A3.6,3.6 0 0,1 3.6,0Z" style="opacity: 1; stroke-width: 1px; fill: rgb(0, 114, 178); fill-opacity: 1; stroke: rgb(252, 252, 249); stroke-opacity: 1;"/><path class="point" transform="translate(578.67,339.98)" d="M3.6,0A3.6,3.6 0 1,1 0,-3.6A3.6,3.6 0 0,1 3.6,0Z" style="opacity: 1; stroke-width: 1px; fill: rgb(0, 114, 178); fill-opacity: 1; stroke: rgb(252, 252, 249); stroke-opacity: 1;"/><path class="point" transform="translate(597.33,390)" d="M3.6,0A3.6,3.6 0 1,1 0,-3.6A3.6,3.6 0 0,1 3.6,0Z" style="opacity: 1; stroke-width: 1px; fill: rgb(0, 114, 178); fill-opacity: 1; stroke: rgb(252, 252, 249); stroke-opacity: 1;"/><path class="point" transform="translate(616,399.68)" d="M3.6,0A3.6,3.6 0 1,1 0,-3.6A3.6,3.6 0 0,1 3.6,0Z" style="opacity: 1; stroke-width: 1px; fill: rgb(0, 114, 178); fill-opacity: 1; stroke: rgb(252, 252, 249); stroke-opacity: 1;"/><path class="point" transform="translate(634.67,399.19)" d="M3.6,0A3.6,3.6 0 1,1 0,-3.6A3.6,3.6 0 0,1 3.6,0Z" style="opacity: 1; stroke-width: 1px; fill: rgb(0, 114, 178); fill-opacity: 1; stroke: rgb(252, 252, 249); stroke-opacity: 1;"/><path class="point" transform="translate(653.33,397.31)" d="M3.6,0A3.6,3.6 0 1,1 0,-3.6A3.6,3.6 0 0,1 3.6,0Z" style="opacity: 1; stroke-width: 1px; fill: rgb(0, 114, 178); fill-opacity: 1; stroke: rgb(252, 252, 249); stroke-opacity: 1;"/><path class="point" transform="translate(672,395.36)" d="M3.6,0A3.6,3.6 0 1,1 0,-3.6A3.6,3.6 0 0,1 3.6,0Z" style="opacity: 1; stroke-width: 1px; fill: rgb(0, 114, 178); fill-opacity: 1; stroke: rgb(252, 252, 249); stroke-opacity: 1;"/></g><g class="text"/></g><g class="trace scatter traced9e97c" style="stroke-miterlimit: 2; opacity: 1;"><g class="fills"/><g class="errorbars"/><g class="lines"><path class="js-line" d="M0,479.16Q13.12,467.95 18.67,459.39C26.09,447.94 31.34,430.24 37.33,414.47C43.83,397.36 48.64,374.86 56,360.32C61.57,349.31 67.99,334.06 74.67,333.32C80.54,332.67 87.86,342.55 93.33,350.52C101.06,361.79 105.59,382.57 112,397.71C118.06,412.02 123.17,429.03 130.67,439.05C136.2,446.43 142.62,452.3 149.33,455.06C155.18,457.47 161.79,456.58 168,456.4C174.23,456.22 180.47,455.04 186.67,453.99C192.91,452.93 199.2,451.97 205.33,450.04C211.65,448.05 218.17,446.2 224,442.14C230.76,437.43 237.07,430.69 242.67,422.27C249.93,411.37 255.57,396.06 261.33,380.53C268.21,361.96 273.85,339.08 280,317.89C286.3,296.15 292.01,272.12 298.67,251.68C304.55,233.63 309.85,214.36 317.33,201.34C322.86,191.71 329.13,180.15 336,178.62C341.77,177.34 349.22,182.14 354.67,187.55C362.49,195.32 367.58,211.57 373.33,225.95C380.23,243.2 385.83,264.78 392,284.52C398.28,304.62 403.79,327.41 410.67,345.47C416.43,360.59 421.28,382.86 429.33,386.08C434.73,388.24 442.83,384.83 448,378.65C459.17,365.28 460.94,320.4 466.67,286.57C473.62,245.55 478.5,191.39 485.33,149.7C491.12,114.35 494.27,72.24 504,52.14C509.22,41.36 517.26,29.39 522.67,30.51C530.65,32.16 535.86,66.24 541.33,89.78C549.04,122.97 553.8,171.04 560,211.89C566.24,253.01 570.75,302.85 578.67,335.7C584.09,358.19 588.43,381.3 597.33,391.33C602.61,397.28 609.61,398.92 616,400.18C622.08,401.38 628.45,399.67 634.67,399.19C640.9,398.71 647.11,397.95 653.33,397.31Q659.55,396.67 672,395.36" style="vector-effect: none; fill: none; stroke: rgb(230, 159, 0); stroke-opacity: 1; stroke-dasharray: 9px, 9px; stroke-width: 1.8px; opacity: 1;"/></g><g class="points"><path class="point" transform="translate(0,479.16)" d="M3.6,0A3.6,3.6 0 1,1 0,-3.6A3.6,3.6 0 0,1 3.6,0Z" style="opacity: 1; stroke-width: 1px; fill: rgb(230, 159, 0); fill-opacity: 1; stroke: rgb(252, 252, 249); stroke-opacity: 1;"/><path class="point" transform="translate(18.67,459.39)" d="M3.6,0A3.6,3.6 0 1,1 0,-3.6A3.6,3.6 0 0,1 3.6,0Z" style="opacity: 1; stroke-width: 1px; fill: rgb(230, 159, 0); fill-opacity: 1; stroke: rgb(252, 252, 249); stroke-opacity: 1;"/><path class="point" transform="translate(37.33,414.47)" d="M3.6,0A3.6,3.6 0 1,1 0,-3.6A3.6,3.6 0 0,1 3.6,0Z" style="opacity: 1; stroke-width: 1px; fill: rgb(230, 159, 0); fill-opacity: 1; stroke: rgb(252, 252, 249); stroke-opacity: 1;"/><path class="point" transform="translate(56,360.32)" d="M3.6,0A3.6,3.6 0 1,1 0,-3.6A3.6,3.6 0 0,1 3.6,0Z" style="opacity: 1; stroke-width: 1px; fill: rgb(230, 159, 0); fill-opacity: 1; stroke: rgb(252, 252, 249); stroke-opacity: 1;"/><path class="point" transform="translate(74.67,333.32)" d="M3.6,0A3.6,3.6 0 1,1 0,-3.6A3.6,3.6 0 0,1 3.6,0Z" style="opacity: 1; stroke-width: 1px; fill: rgb(230, 159, 0); fill-opacity: 1; stroke: rgb(252, 252, 249); stroke-opacity: 1;"/><path class="point" transform="translate(93.33,350.52)" d="M3.6,0A3.6,3.6 0 1,1 0,-3.6A3.6,3.6 0 0,1 3.6,0Z" style="opacity: 1; stroke-width: 1px; fill: rgb(230, 159, 0); fill-opacity: 1; stroke: rgb(252, 252, 249); stroke-opacity: 1;"/><path class="point" transform="translate(112,397.71)" d="M3.6,0A3.6,3.6 0 1,1 0,-3.6A3.6,3.6 0 0,1 3.6,0Z" style="opacity: 1; stroke-width: 1px; fill: rgb(230, 159, 0); fill-opacity: 1; stroke: rgb(252, 252, 249); stroke-opacity: 1;"/><path class="point" transform="translate(130.67,439.05)" d="M3.6,0A3.6,3.6 0 1,1 0,-3.6A3.6,3.6 0 0,1 3.6,0Z" style="opacity: 1; stroke-width: 1px; fill: rgb(230, 159, 0); fill-opacity: 1; stroke: rgb(252, 252, 249); stroke-opacity: 1;"/><path class="point" transform="translate(149.33,455.06)" d="M3.6,0A3.6,3.6 0 1,1 0,-3.6A3.6,3.6 0 0,1 3.6,0Z" style="opacity: 1; stroke-width: 1px; fill: rgb(230, 159, 0); fill-opacity: 1; stroke: rgb(252, 252, 249); stroke-opacity: 1;"/><path class="point" transform="translate(168,456.4)" d="M3.6,0A3.6,3.6 0 1,1 0,-3.6A3.6,3.6 0 0,1 3.6,0Z" style="opacity: 1; stroke-width: 1px; fill: rgb(230, 159, 0); fill-opacity: 1; stroke: rgb(252, 252, 249); stroke-opacity: 1;"/><path class="point" transform="translate(186.67,453.99)" d="M3.6,0A3.6,3.6 0 1,1 0,-3.6A3.6,3.6 0 0,1 3.6,0Z" style="opacity: 1; stroke-width: 1px; fill: rgb(230, 159, 0); fill-opacity: 1; stroke: rgb(252, 252, 249); stroke-opacity: 1;"/><path class="point" transform="translate(205.33,450.04)" d="M3.6,0A3.6,3.6 0 1,1 0,-3.6A3.6,3.6 0 0,1 3.6,0Z" style="opacity: 1; stroke-width: 1px; fill: rgb(230, 159, 0); fill-opacity: 1; stroke: rgb(252, 252, 249); stroke-opacity: 1;"/><path class="point" transform="translate(224,442.14)" d="M3.6,0A3.6,3.6 0 1,1 0,-3.6A3.6,3.6 0 0,1 3.6,0Z" style="opacity: 1; stroke-width: 1px; fill: rgb(230, 159, 0); fill-opacity: 1; stroke: rgb(252, 252, 249); stroke-opacity: 1;"/><path class="point" transform="translate(242.67,422.27)" d="M3.6,0A3.6,3.6 0 1,1 0,-3.6A3.6,3.6 0 0,1 3.6,0Z" style="opacity: 1; stroke-width: 1px; fill: rgb(230, 159, 0); fill-opacity: 1; stroke: rgb(252, 252, 249); stroke-opacity: 1;"/><path class="point" transform="translate(261.33,380.53)" d="M3.6,0A3.6,3.6 0 1,1 0,-3.6A3.6,3.6 0 0,1 3.6,0Z" style="opacity: 1; stroke-width: 1px; fill: rgb(230, 159, 0); fill-opacity: 1; stroke: rgb(252, 252, 249); stroke-opacity: 1;"/><path class="point" transform="translate(280,317.89)" d="M3.6,0A3.6,3.6 0 1,1 0,-3.6A3.6,3.6 0 0,1 3.6,0Z" style="opacity: 1; stroke-width: 1px; fill: rgb(230, 159, 0); fill-opacity: 1; stroke: rgb(252, 252, 249); stroke-opacity: 1;"/><path class="point" transform="translate(298.67,251.68)" d="M3.6,0A3.6,3.6 0 1,1 0,-3.6A3.6,3.6 0 0,1 3.6,0Z" style="opacity: 1; stroke-width: 1px; fill: rgb(230, 159, 0); fill-opacity: 1; stroke: rgb(252, 252, 249); stroke-opacity: 1;"/><path class="point" transform="translate(317.33,201.34)" d="M3.6,0A3.6,3.6 0 1,1 0,-3.6A3.6,3.6 0 0,1 3.6,0Z" style="opacity: 1; stroke-width: 1px; fill: rgb(230, 159, 0); fill-opacity: 1; stroke: rgb(252, 252, 249); stroke-opacity: 1;"/><path class="point" transform="translate(336,178.62)" d="M3.6,0A3.6,3.6 0 1,1 0,-3.6A3.6,3.6 0 0,1 3.6,0Z" style="opacity: 1; stroke-width: 1px; fill: rgb(230, 159, 0); fill-opacity: 1; stroke: rgb(252, 252, 249); stroke-opacity: 1;"/><path class="point" transform="translate(354.67,187.55)" d="M3.6,0A3.6,3.6 0 1,1 0,-3.6A3.6,3.6 0 0,1 3.6,0Z" style="opacity: 1; stroke-width: 1px; fill: rgb(230, 159, 0); fill-opacity: 1; stroke: rgb(252, 252, 249); stroke-opacity: 1;"/><path class="point" transform="translate(373.33,225.95)" d="M3.6,0A3.6,3.6 0 1,1 0,-3.6A3.6,3.6 0 0,1 3.6,0Z" style="opacity: 1; stroke-width: 1px; fill: rgb(230, 159, 0); fill-opacity: 1; stroke: rgb(252, 252, 249); stroke-opacity: 1;"/><path class="point" transform="translate(392,284.52)" d="M3.6,0A3.6,3.6 0 1,1 0,-3.6A3.6,3.6 0 0,1 3.6,0Z" style="opacity: 1; stroke-width: 1px; fill: rgb(230, 159, 0); fill-opacity: 1; stroke: rgb(252, 252, 249); stroke-opacity: 1;"/><path class="point" transform="translate(410.67,345.47)" d="M3.6,0A3.6,3.6 0 1,1 0,-3.6A3.6,3.6 0 0,1 3.6,0Z" style="opacity: 1; stroke-width: 1px; fill: rgb(230, 159, 0); fill-opacity: 1; stroke: rgb(252, 252, 249); stroke-opacity: 1;"/><path class="point" transform="translate(429.33,386.08)" d="M3.6,0A3.6,3.6 0 1,1 0,-3.6A3.6,3.6 0 0,1 3.6,0Z" style="opacity: 1; stroke-width: 1px; fill: rgb(230, 159, 0); fill-opacity: 1; stroke: rgb(252, 252, 249); stroke-opacity: 1;"/><path class="point" transform="translate(448,378.65)" d="M3.6,0A3.6,3.6 0 1,1 0,-3.6A3.6,3.6 0 0,1 3.6,0Z" style="opacity: 1; stroke-width: 1px; fill: rgb(230, 159, 0); fill-opacity: 1; stroke: rgb(252, 252, 249); stroke-opacity: 1;"/><path class="point" transform="translate(466.67,286.57)" d="M3.6,0A3.6,3.6 0 1,1 0,-3.6A3.6,3.6 0 0,1 3.6,0Z" style="opacity: 1; stroke-width: 1px; fill: rgb(230, 159, 0); fill-opacity: 1; stroke: rgb(252, 252, 249); stroke-opacity: 1;"/><path class="point" transform="translate(485.33,149.7)" d="M3.6,0A3.6,3.6 0 1,1 0,-3.6A3.6,3.6 0 0,1 3.6,0Z" style="opacity: 1; stroke-width: 1px; fill: rgb(230, 159, 0); fill-opacity: 1; stroke: rgb(252, 252, 249); stroke-opacity: 1;"/><path class="point" transform="translate(504,52.14)" d="M3.6,0A3.6,3.6 0 1,1 0,-3.6A3.6,3.6 0 0,1 3.6,0Z" style="opacity: 1; stroke-width: 1px; fill: rgb(230, 159, 0); fill-opacity: 1; stroke: rgb(252, 252, 249); stroke-opacity: 1;"/><path class="point" transform="translate(522.67,30.51)" d="M3.6,0A3.6,3.6 0 1,1 0,-3.6A3.6,3.6 0 0,1 3.6,0Z" style="opacity: 1; stroke-width: 1px; fill: rgb(230, 159, 0); fill-opacity: 1; stroke: rgb(252, 252, 249); stroke-opacity: 1;"/><path class="point" transform="translate(541.33,89.78)" d="M3.6,0A3.6,3.6 0 1,1 0,-3.6A3.6,3.6 0 0,1 3.6,0Z" style="opacity: 1; stroke-width: 1px; fill: rgb(230, 159, 0); fill-opacity: 1; stroke: rgb(252, 252, 249); stroke-opacity: 1;"/><path class="point" transform="translate(560,211.89)" d="M3.6,0A3.6,3.6 0 1,1 0,-3.6A3.6,3.6 0 0,1 3.6,0Z" style="opacity: 1; stroke-width: 1px; fill: rgb(230, 159, 0); fill-opacity: 1; stroke: rgb(252, 252, 249); stroke-opacity: 1;"/><path class="point" transform="translate(578.67,335.7)" d="M3.6,0A3.6,3.6 0 1,1 0,-3.6A3.6,3.6 0 0,1 3.6,0Z" style="opacity: 1; stroke-width: 1px; fill: rgb(230, 159, 0); fill-opacity: 1; stroke: rgb(252, 252, 249); stroke-opacity: 1;"/><path class="point" transform="translate(597.33,391.33)" d="M3.6,0A3.6,3.6 0 1,1 0,-3.6A3.6,3.6 0 0,1 3.6,0Z" style="opacity: 1; stroke-width: 1px; fill: rgb(230, 159, 0); fill-opacity: 1; stroke: rgb(252, 252, 249); stroke-opacity: 1;"/><path class="point" transform="translate(616,400.18)" d="M3.6,0A3.6,3.6 0 1,1 0,-3.6A3.6,3.6 0 0,1 3.6,0Z" style="opacity: 1; stroke-width: 1px; fill: rgb(230, 159, 0); fill-opacity: 1; stroke: rgb(252, 252, 249); stroke-opacity: 1;"/><path class="point" transform="translate(634.67,399.19)" d="M3.6,0A3.6,3.6 0 1,1 0,-3.6A3.6,3.6 0 0,1 3.6,0Z" style="opacity: 1; stroke-width: 1px; fill: rgb(230, 159, 0); fill-opacity: 1; stroke: rgb(252, 252, 249); stroke-opacity: 1;"/><path class="point" transform="translate(653.33,397.31)" d="M3.6,0A3.6,3.6 0 1,1 0,-3.6A3.6,3.6 0 0,1 3.6,0Z" style="opacity: 1; stroke-width: 1px; fill: rgb(230, 159, 0); fill-opacity: 1; stroke: rgb(252, 252, 249); stroke-opacity: 1;"/><path class="point" transform="translate(672,395.36)" d="M3.6,0A3.6,3.6 0 1,1 0,-3.6A3.6,3.6 0 0,1 3.6,0Z" style="opacity: 1; stroke-width: 1px; fill: rgb(230, 159, 0); fill-opacity: 1; stroke: rgb(252, 252, 249); stroke-opacity: 1;"/></g><g class="text"/></g><g class="trace scatter trace058c85" style="stroke-miterlimit: 2; opacity: 1;"><g class="fills"/><g class="errorbars"/><g class="lines"><path class="js-line" d="M0,481.46Q13.26,473.73 18.67,466.22C26.67,455.11 31.63,435.44 37.33,416.96C44.35,394.19 49.06,362.31 56,339.26C61.74,320.2 66.17,291.06 74.67,287.93C80,285.97 88.08,291.92 93.33,298.54C102.53,310.14 105.82,340.51 112,361.77C118.27,383.34 122.81,410.58 130.67,427.04C136.11,438.42 142.01,449.06 149.33,453.59C154.91,457.04 161.77,456.31 168,456.4C174.22,456.49 180.47,455.14 186.67,454.13C192.91,453.11 199.26,452.47 205.33,450.31C211.72,448.03 218.46,445.91 224,440.53C231.45,433.31 237.23,421.21 242.67,407.4C250.53,387.42 255.51,357.95 261.33,330.07C268.09,297.7 273.55,258.39 280,224.46C286.03,192.74 291.36,158.6 298.67,132.64C304.25,112.81 308.33,88.1 317.33,81.28C322.6,77.29 330.71,76.55 336,79.9C344.81,85.48 349.1,109.52 354.67,128.32C362.02,153.1 367.28,186.19 373.33,216.52C379.75,248.68 384.93,286.94 392,316.16C397.68,339.63 401.5,375.15 410.67,378.83C415.92,380.94 424.14,375.16 429.33,368.21C439.46,354.66 442.12,316.99 448,288.69C454.66,256.65 459.98,217.56 466.67,185.68C472.53,157.76 477.19,126.96 485.33,107.58C490.71,94.77 497.56,78.16 504,77.87C510.04,77.6 517.32,91.4 522.67,102.44C530.98,119.57 535.33,149.4 541.33,174.42C547.81,201.42 550.68,241.25 560,259.01C565.24,269 572.82,279.68 578.67,279.08C585.37,278.4 590.07,250.3 597.33,248.38C602.93,246.9 610.74,252.25 616,258.78C625.14,270.12 628.29,300.55 634.67,320.53C640.75,339.57 645.12,363.54 653.33,376.01Q658.7,384.17 672,392.76" style="vector-effect: none; fill: none; stroke: rgb(213, 94, 0); stroke-opacity: 1; stroke-width: 2.2px; opacity: 1;"/></g><g class="points"><path class="point" transform="translate(0,481.46)" d="M3.6,0A3.6,3.6 0 1,1 0,-3.6A3.6,3.6 0 0,1 3.6,0Z" style="opacity: 1; stroke-width: 1px; fill: rgb(213, 94, 0); fill-opacity: 1; stroke: rgb(252, 252, 249); stroke-opacity: 1;"/><path class="point" transform="translate(18.67,466.22)" d="M3.6,0A3.6,3.6 0 1,1 0,-3.6A3.6,3.6 0 0,1 3.6,0Z" style="opacity: 1; stroke-width: 1px; fill: rgb(213, 94, 0); fill-opacity: 1; stroke: rgb(252, 252, 249); stroke-opacity: 1;"/><path class="point" transform="translate(37.33,416.96)" d="M3.6,0A3.6,3.6 0 1,1 0,-3.6A3.6,3.6 0 0,1 3.6,0Z" style="opacity: 1; stroke-width: 1px; fill: rgb(213, 94, 0); fill-opacity: 1; stroke: rgb(252, 252, 249); stroke-opacity: 1;"/><path class="point" transform="translate(56,339.26)" d="M3.6,0A3.6,3.6 0 1,1 0,-3.6A3.6,3.6 0 0,1 3.6,0Z" style="opacity: 1; stroke-width: 1px; fill: rgb(213, 94, 0); fill-opacity: 1; stroke: rgb(252, 252, 249); stroke-opacity: 1;"/><path class="point" transform="translate(74.67,287.93)" d="M3.6,0A3.6,3.6 0 1,1 0,-3.6A3.6,3.6 0 0,1 3.6,0Z" style="opacity: 1; stroke-width: 1px; fill: rgb(213, 94, 0); fill-opacity: 1; stroke: rgb(252, 252, 249); stroke-opacity: 1;"/><path class="point" transform="translate(93.33,298.54)" d="M3.6,0A3.6,3.6 0 1,1 0,-3.6A3.6,3.6 0 0,1 3.6,0Z" style="opacity: 1; stroke-width: 1px; fill: rgb(213, 94, 0); fill-opacity: 1; stroke: rgb(252, 252, 249); stroke-opacity: 1;"/><path class="point" transform="translate(112,361.77)" d="M3.6,0A3.6,3.6 0 1,1 0,-3.6A3.6,3.6 0 0,1 3.6,0Z" style="opacity: 1; stroke-width: 1px; fill: rgb(213, 94, 0); fill-opacity: 1; stroke: rgb(252, 252, 249); stroke-opacity: 1;"/><path class="point" transform="translate(130.67,427.04)" d="M3.6,0A3.6,3.6 0 1,1 0,-3.6A3.6,3.6 0 0,1 3.6,0Z" style="opacity: 1; stroke-width: 1px; fill: rgb(213, 94, 0); fill-opacity: 1; stroke: rgb(252, 252, 249); stroke-opacity: 1;"/><path class="point" transform="translate(149.33,453.59)" d="M3.6,0A3.6,3.6 0 1,1 0,-3.6A3.6,3.6 0 0,1 3.6,0Z" style="opacity: 1; stroke-width: 1px; fill: rgb(213, 94, 0); fill-opacity: 1; stroke: rgb(252, 252, 249); stroke-opacity: 1;"/><path class="point" transform="translate(168,456.4)" d="M3.6,0A3.6,3.6 0 1,1 0,-3.6A3.6,3.6 0 0,1 3.6,0Z" style="opacity: 1; stroke-width: 1px; fill: rgb(213, 94, 0); fill-opacity: 1; stroke: rgb(252, 252, 249); stroke-opacity: 1;"/><path class="point" transform="translate(186.67,454.13)" d="M3.6,0A3.6,3.6 0 1,1 0,-3.6A3.6,3.6 0 0,1 3.6,0Z" style="opacity: 1; stroke-width: 1px; fill: rgb(213, 94, 0); fill-opacity: 1; stroke: rgb(252, 252, 249); stroke-opacity: 1;"/><path class="point" transform="translate(205.33,450.31)" d="M3.6,0A3.6,3.6 0 1,1 0,-3.6A3.6,3.6 0 0,1 3.6,0Z" style="opacity: 1; stroke-width: 1px; fill: rgb(213, 94, 0); fill-opacity: 1; stroke: rgb(252, 252, 249); stroke-opacity: 1;"/><path class="point" transform="translate(224,440.53)" d="M3.6,0A3.6,3.6 0 1,1 0,-3.6A3.6,3.6 0 0,1 3.6,0Z" style="opacity: 1; stroke-width: 1px; fill: rgb(213, 94, 0); fill-opacity: 1; stroke: rgb(252, 252, 249); stroke-opacity: 1;"/><path class="point" transform="translate(242.67,407.4)" d="M3.6,0A3.6,3.6 0 1,1 0,-3.6A3.6,3.6 0 0,1 3.6,0Z" style="opacity: 1; stroke-width: 1px; fill: rgb(213, 94, 0); fill-opacity: 1; stroke: rgb(252, 252, 249); stroke-opacity: 1;"/><path class="point" transform="translate(261.33,330.07)" d="M3.6,0A3.6,3.6 0 1,1 0,-3.6A3.6,3.6 0 0,1 3.6,0Z" style="opacity: 1; stroke-width: 1px; fill: rgb(213, 94, 0); fill-opacity: 1; stroke: rgb(252, 252, 249); stroke-opacity: 1;"/><path class="point" transform="translate(280,224.46)" d="M3.6,0A3.6,3.6 0 1,1 0,-3.6A3.6,3.6 0 0,1 3.6,0Z" style="opacity: 1; stroke-width: 1px; fill: rgb(213, 94, 0); fill-opacity: 1; stroke: rgb(252, 252, 249); stroke-opacity: 1;"/><path class="point" transform="translate(298.67,132.64)" d="M3.6,0A3.6,3.6 0 1,1 0,-3.6A3.6,3.6 0 0,1 3.6,0Z" style="opacity: 1; stroke-width: 1px; fill: rgb(213, 94, 0); fill-opacity: 1; stroke: rgb(252, 252, 249); stroke-opacity: 1;"/><path class="point" transform="translate(317.33,81.28)" d="M3.6,0A3.6,3.6 0 1,1 0,-3.6A3.6,3.6 0 0,1 3.6,0Z" style="opacity: 1; stroke-width: 1px; fill: rgb(213, 94, 0); fill-opacity: 1; stroke: rgb(252, 252, 249); stroke-opacity: 1;"/><path class="point" transform="translate(336,79.9)" d="M3.6,0A3.6,3.6 0 1,1 0,-3.6A3.6,3.6 0 0,1 3.6,0Z" style="opacity: 1; stroke-width: 1px; fill: rgb(213, 94, 0); fill-opacity: 1; stroke: rgb(252, 252, 249); stroke-opacity: 1;"/><path class="point" transform="translate(354.67,128.32)" d="M3.6,0A3.6,3.6 0 1,1 0,-3.6A3.6,3.6 0 0,1 3.6,0Z" style="opacity: 1; stroke-width: 1px; fill: rgb(213, 94, 0); fill-opacity: 1; stroke: rgb(252, 252, 249); stroke-opacity: 1;"/><path class="point" transform="translate(373.33,216.52)" d="M3.6,0A3.6,3.6 0 1,1 0,-3.6A3.6,3.6 0 0,1 3.6,0Z" style="opacity: 1; stroke-width: 1px; fill: rgb(213, 94, 0); fill-opacity: 1; stroke: rgb(252, 252, 249); stroke-opacity: 1;"/><path class="point" transform="translate(392,316.16)" d="M3.6,0A3.6,3.6 0 1,1 0,-3.6A3.6,3.6 0 0,1 3.6,0Z" style="opacity: 1; stroke-width: 1px; fill: rgb(213, 94, 0); fill-opacity: 1; stroke: rgb(252, 252, 249); stroke-opacity: 1;"/><path class="point" transform="translate(410.67,378.83)" d="M3.6,0A3.6,3.6 0 1,1 0,-3.6A3.6,3.6 0 0,1 3.6,0Z" style="opacity: 1; stroke-width: 1px; fill: rgb(213, 94, 0); fill-opacity: 1; stroke: rgb(252, 252, 249); stroke-opacity: 1;"/><path class="point" transform="translate(429.33,368.21)" d="M3.6,0A3.6,3.6 0 1,1 0,-3.6A3.6,3.6 0 0,1 3.6,0Z" style="opacity: 1; stroke-width: 1px; fill: rgb(213, 94, 0); fill-opacity: 1; stroke: rgb(252, 252, 249); stroke-opacity: 1;"/><path class="point" transform="translate(448,288.69)" d="M3.6,0A3.6,3.6 0 1,1 0,-3.6A3.6,3.6 0 0,1 3.6,0Z" style="opacity: 1; stroke-width: 1px; fill: rgb(213, 94, 0); fill-opacity: 1; stroke: rgb(252, 252, 249); stroke-opacity: 1;"/><path class="point" transform="translate(466.67,185.68)" d="M3.6,0A3.6,3.6 0 1,1 0,-3.6A3.6,3.6 0 0,1 3.6,0Z" style="opacity: 1; stroke-width: 1px; fill: rgb(213, 94, 0); fill-opacity: 1; stroke: rgb(252, 252, 249); stroke-opacity: 1;"/><path class="point" transform="translate(485.33,107.58)" d="M3.6,0A3.6,3.6 0 1,1 0,-3.6A3.6,3.6 0 0,1 3.6,0Z" style="opacity: 1; stroke-width: 1px; fill: rgb(213, 94, 0); fill-opacity: 1; stroke: rgb(252, 252, 249); stroke-opacity: 1;"/><path class="point" transform="translate(504,77.87)" d="M3.6,0A3.6,3.6 0 1,1 0,-3.6A3.6,3.6 0 0,1 3.6,0Z" style="opacity: 1; stroke-width: 1px; fill: rgb(213, 94, 0); fill-opacity: 1; stroke: rgb(252, 252, 249); stroke-opacity: 1;"/><path class="point" transform="translate(522.67,102.44)" d="M3.6,0A3.6,3.6 0 1,1 0,-3.6A3.6,3.6 0 0,1 3.6,0Z" style="opacity: 1; stroke-width: 1px; fill: rgb(213, 94, 0); fill-opacity: 1; stroke: rgb(252, 252, 249); stroke-opacity: 1;"/><path class="point" transform="translate(541.33,174.42)" d="M3.6,0A3.6,3.6 0 1,1 0,-3.6A3.6,3.6 0 0,1 3.6,0Z" style="opacity: 1; stroke-width: 1px; fill: rgb(213, 94, 0); fill-opacity: 1; stroke: rgb(252, 252, 249); stroke-opacity: 1;"/><path class="point" transform="translate(560,259.01)" d="M3.6,0A3.6,3.6 0 1,1 0,-3.6A3.6,3.6 0 0,1 3.6,0Z" style="opacity: 1; stroke-width: 1px; fill: rgb(213, 94, 0); fill-opacity: 1; stroke: rgb(252, 252, 249); stroke-opacity: 1;"/><path class="point" transform="translate(578.67,279.08)" d="M3.6,0A3.6,3.6 0 1,1 0,-3.6A3.6,3.6 0 0,1 3.6,0Z" style="opacity: 1; stroke-width: 1px; fill: rgb(213, 94, 0); fill-opacity: 1; stroke: rgb(252, 252, 249); stroke-opacity: 1;"/><path class="point" transform="translate(597.33,248.38)" d="M3.6,0A3.6,3.6 0 1,1 0,-3.6A3.6,3.6 0 0,1 3.6,0Z" style="opacity: 1; stroke-width: 1px; fill: rgb(213, 94, 0); fill-opacity: 1; stroke: rgb(252, 252, 249); stroke-opacity: 1;"/><path class="point" transform="translate(616,258.78)" d="M3.6,0A3.6,3.6 0 1,1 0,-3.6A3.6,3.6 0 0,1 3.6,0Z" style="opacity: 1; stroke-width: 1px; fill: rgb(213, 94, 0); fill-opacity: 1; stroke: rgb(252, 252, 249); stroke-opacity: 1;"/><path class="point" transform="translate(634.67,320.53)" d="M3.6,0A3.6,3.6 0 1,1 0,-3.6A3.6,3.6 0 0,1 3.6,0Z" style="opacity: 1; stroke-width: 1px; fill: rgb(213, 94, 0); fill-opacity: 1; stroke: rgb(252, 252, 249); stroke-opacity: 1;"/><path class="point" transform="translate(653.33,376.01)" d="M3.6,0A3.6,3.6 0 1,1 0,-3.6A3.6,3.6 0 0,1 3.6,0Z" style="opacity: 1; stroke-width: 1px; fill: rgb(213, 94, 0); fill-opacity: 1; stroke: rgb(252, 252, 249); stroke-opacity: 1;"/><path class="point" transform="translate(672,392.76)" d="M3.6,0A3.6,3.6 0 1,1 0,-3.6A3.6,3.6 0 0,1 3.6,0Z" style="opacity: 1; stroke-width: 1px; fill: rgb(213, 94, 0); fill-opacity: 1; stroke: rgb(252, 252, 249); stroke-opacity: 1;"/></g><g class="text"/></g></g></g></g><g class="zerolinelayer-above"/><path class="xlines-above crisp" d="M76.95,551.525H751.05M76.95,33.475H751.05" style="fill: none; stroke-width: 1.05px; stroke: rgb(17, 24, 39); stroke-opacity: 1;"/><path class="ylines-above crisp" d="M77.475,34V551M750.525,34V551" style="fill: none; stroke-width: 1.05px; stroke: rgb(17, 24, 39); stroke-opacity: 1;"/><g class="overlines-above"/><g class="xaxislayer-above"><path class="xtick ticks crisp" d="M0,552.05v5" transform="translate(78,0)" style="stroke: rgb(68, 68, 68); stroke-opacity: 1; stroke-width: 1px;"/><path class="xtick ticks crisp" d="M0,552.05v5" transform="translate(152.67000000000002,0)" style="stroke: rgb(68, 68, 68); stroke-opacity: 1; stroke-width: 1px;"/><path class="xtick ticks crisp" d="M0,552.05v5" transform="translate(227.33,0)" style="stroke: rgb(68, 68, 68); stroke-opacity: 1; stroke-width: 1px;"/><path class="xtick ticks crisp" d="M0,552.05v5" transform="translate(302,0)" style="stroke: rgb(68, 68, 68); stroke-opacity: 1; stroke-width: 1px;"/><path class="xtick ticks crisp" d="M0,552.05v5" transform="translate(376.67,0)" style="stroke: rgb(68, 68, 68); stroke-opacity: 1; stroke-width: 1px;"/><path class="xtick ticks crisp" d="M0,552.05v5" transform="translate(451.33,0)" style="stroke: rgb(68, 68, 68); stroke-opacity: 1; stroke-width: 1px;"/><path class="xtick ticks crisp" d="M0,552.05v5" transform="translate(526,0)" style="stroke: rgb(68, 68, 68); stroke-opacity: 1; stroke-width: 1px;"/><path class="xtick ticks crisp" d="M0,552.05v5" transform="translate(600.67,0)" style="stroke: rgb(68, 68, 68); stroke-opacity: 1; stroke-width: 1px;"/><path class="xtick ticks crisp" d="M0,552.05v5" transform="translate(675.33,0)" style="stroke: rgb(68, 68, 68); stroke-opacity: 1; stroke-width: 1px;"/><path class="xtick ticks crisp" d="M0,552.05v5" transform="translate(750,0)" style="stroke: rgb(68, 68, 68); stroke-opacity: 1; stroke-width: 1px;"/><g class="xtick"><text text-anchor="middle" x="0" y="569.05" transform="translate(78,0)" style="font-family: -apple-system, BlinkMacSystemFont, 'Segoe UI', 'PingFang SC', Arial, sans-serif; font-size: 10px; fill: rgb(17, 24, 39); fill-opacity: 1; white-space: pre;">900</text></g><g class="xtick"><text text-anchor="middle" x="0" y="569.05" style="font-family: -apple-system, BlinkMacSystemFont, 'Segoe UI', 'PingFang SC', Arial, sans-serif; font-size: 10px; fill: rgb(17, 24, 39); fill-opacity: 1; white-space: pre;" transform="translate(152.67000000000002,0)">1000</text></g><g class="xtick"><text text-anchor="middle" x="0" y="569.05" style="font-family: -apple-system, BlinkMacSystemFont, 'Segoe UI', 'PingFang SC', Arial, sans-serif; font-size: 10px; fill: rgb(17, 24, 39); fill-opacity: 1; white-space: pre;" transform="translate(227.33,0)">1100</text></g><g class="xtick"><text text-anchor="middle" x="0" y="569.05" style="font-family: -apple-system, BlinkMacSystemFont, 'Segoe UI', 'PingFang SC', Arial, sans-serif; font-size: 10px; fill: rgb(17, 24, 39); fill-opacity: 1; white-space: pre;" transform="translate(302,0)">1200</text></g><g class="xtick"><text text-anchor="middle" x="0" y="569.05" style="font-family: -apple-system, BlinkMacSystemFont, 'Segoe UI', 'PingFang SC', Arial, sans-serif; font-size: 10px; fill: rgb(17, 24, 39); fill-opacity: 1; white-space: pre;" transform="translate(376.67,0)">1300</text></g><g class="xtick"><text text-anchor="middle" x="0" y="569.05" style="font-family: -apple-system, BlinkMacSystemFont, 'Segoe UI', 'PingFang SC', Arial, sans-serif; font-size: 10px; fill: rgb(17, 24, 39); fill-opacity: 1; white-space: pre;" transform="translate(451.33,0)">1400</text></g><g class="xtick"><text text-anchor="middle" x="0" y="569.05" style="font-family: -apple-system, BlinkMacSystemFont, 'Segoe UI', 'PingFang SC', Arial, sans-serif; font-size: 10px; fill: rgb(17, 24, 39); fill-opacity: 1; white-space: pre;" transform="translate(526,0)">1500</text></g><g class="xtick"><text text-anchor="middle" x="0" y="569.05" style="font-family: -apple-system, BlinkMacSystemFont, 'Segoe UI', 'PingFang SC', Arial, sans-serif; font-size: 10px; fill: rgb(17, 24, 39); fill-opacity: 1; white-space: pre;" transform="translate(600.67,0)">1600</text></g><g class="xtick"><text text-anchor="middle" x="0" y="569.05" style="font-family: -apple-system, BlinkMacSystemFont, 'Segoe UI', 'PingFang SC', Arial, sans-serif; font-size: 10px; fill: rgb(17, 24, 39); fill-opacity: 1; white-space: pre;" transform="translate(675.33,0)">1700</text></g><g class="xtick"><text text-anchor="middle" x="0" y="569.05" style="font-family: -apple-system, BlinkMacSystemFont, 'Segoe UI', 'PingFang SC', Arial, sans-serif; font-size: 10px; fill: rgb(17, 24, 39); fill-opacity: 1; white-space: pre;" transform="translate(750,0)">1800</text></g></g><g class="yaxislayer-above"><path class="ytick ticks crisp" d="M76.94999999999999,0h-5" transform="translate(0,551)" style="stroke: rgb(68, 68, 68); stroke-opacity: 1; stroke-width: 1px;"/><path class="ytick ticks crisp" d="M76.94999999999999,0h-5" transform="translate(0,421.75)" style="stroke: rgb(68, 68, 68); stroke-opacity: 1; stroke-width: 1px;"/><path class="ytick ticks crisp" d="M76.94999999999999,0h-5" transform="translate(0,346.14)" style="stroke: rgb(68, 68, 68); stroke-opacity: 1; stroke-width: 1px;"/><path class="ytick ticks crisp" d="M76.94999999999999,0h-5" transform="translate(0,292.5)" style="stroke: rgb(68, 68, 68); stroke-opacity: 1; stroke-width: 1px;"/><path class="ytick ticks crisp" d="M76.94999999999999,0h-5" transform="translate(0,250.89)" style="stroke: rgb(68, 68, 68); stroke-opacity: 1; stroke-width: 1px;"/><path class="ytick ticks crisp" d="M76.94999999999999,0h-5" transform="translate(0,216.89)" style="stroke: rgb(68, 68, 68); stroke-opacity: 1; stroke-width: 1px;"/><path class="ytick ticks crisp" d="M76.94999999999999,0h-5" transform="translate(0,188.15)" style="stroke: rgb(68, 68, 68); stroke-opacity: 1; stroke-width: 1px;"/><path class="ytick ticks crisp" d="M76.94999999999999,0h-5" transform="translate(0,163.25)" style="stroke: rgb(68, 68, 68); stroke-opacity: 1; stroke-width: 1px;"/><path class="ytick ticks crisp" d="M76.94999999999999,0h-5" transform="translate(0,141.29000000000002)" style="stroke: rgb(68, 68, 68); stroke-opacity: 1; stroke-width: 1px;"/><path class="ytick ticks crisp" d="M76.94999999999999,0h-5" transform="translate(0,121.64)" style="stroke: rgb(68, 68, 68); stroke-opacity: 1; stroke-width: 1px;"/><g class="ytick"><text text-anchor="end" x="66.82499999999999" y="4.375" transform="translate(0,551)" style="font-family: -apple-system, BlinkMacSystemFont, 'Segoe UI', 'PingFang SC', Arial, sans-serif; font-size: 12.5px; fill: rgb(17, 24, 39); fill-opacity: 1; white-space: pre;">10​<tspan style="font-size:70%" dy="-0.6em">−1</tspan><tspan dy="0.42em">​</tspan></text></g><g class="ytick"><text text-anchor="end" x="69.94999999999999" y="2.625" style="font-family: -apple-system, BlinkMacSystemFont, 'Segoe UI', 'PingFang SC', Arial, sans-serif; font-size: 7.5px; fill: rgb(17, 24, 39); fill-opacity: 1; white-space: pre;" transform="translate(0,421.75)">2</text></g><g class="ytick"><text text-anchor="end" x="69.94999999999999" y="2.625" style="font-family: -apple-system, BlinkMacSystemFont, 'Segoe UI', 'PingFang SC', Arial, sans-serif; font-size: 7.5px; fill: rgb(17, 24, 39); fill-opacity: 1; white-space: pre;" transform="translate(0,346.14)">3</text></g><g class="ytick"><text text-anchor="end" x="69.94999999999999" y="2.625" style="font-family: -apple-system, BlinkMacSystemFont, 'Segoe UI', 'PingFang SC', Arial, sans-serif; font-size: 7.5px; fill: rgb(17, 24, 39); fill-opacity: 1; white-space: pre;" transform="translate(0,292.5)">4</text></g><g class="ytick"><text text-anchor="end" x="69.94999999999999" y="2.625" style="font-family: -apple-system, BlinkMacSystemFont, 'Segoe UI', 'PingFang SC', Arial, sans-serif; font-size: 7.5px; fill: rgb(17, 24, 39); fill-opacity: 1; white-space: pre;" transform="translate(0,250.89)">5</text></g><g class="ytick"><text text-anchor="end" x="69.94999999999999" y="2.625" style="font-family: -apple-system, BlinkMacSystemFont, 'Segoe UI', 'PingFang SC', Arial, sans-serif; font-size: 7.5px; fill: rgb(17, 24, 39); fill-opacity: 1; white-space: pre;" transform="translate(0,216.89)">6</text></g><g class="ytick"><text text-anchor="end" x="69.94999999999999" y="2.625" style="font-family: -apple-system, BlinkMacSystemFont, 'Segoe UI', 'PingFang SC', Arial, sans-serif; font-size: 7.5px; fill: rgb(17, 24, 39); fill-opacity: 1; white-space: pre;" transform="translate(0,188.15)">7</text></g><g class="ytick"><text text-anchor="end" x="69.94999999999999" y="2.625" style="font-family: -apple-system, BlinkMacSystemFont, 'Segoe UI', 'PingFang SC', Arial, sans-serif; font-size: 7.5px; fill: rgb(17, 24, 39); fill-opacity: 1; white-space: pre;" transform="translate(0,163.25)">8</text></g><g class="ytick"><text text-anchor="end" x="69.94999999999999" y="2.625" style="font-family: -apple-system, BlinkMacSystemFont, 'Segoe UI', 'PingFang SC', Arial, sans-serif; font-size: 7.5px; fill: rgb(17, 24, 39); fill-opacity: 1; white-space: pre;" transform="translate(0,141.29000000000002)">9</text></g><g class="ytick"><text text-anchor="end" x="66.82499999999999" y="4.375" style="font-family: -apple-system, BlinkMacSystemFont, 'Segoe UI', 'PingFang SC', Arial, sans-serif; font-size: 12.5px; fill: rgb(17, 24, 39); fill-opacity: 1; white-space: pre;" transform="translate(0,121.64)">1</text></g></g><g class="overaxes-above"/></g></g><g class="polarlayer"/><g class="smithlayer"/><g class="ternarylayer"/><g class="geolayer"/><g class="funnelarealayer"/><g class="pielayer"/><g class="iciclelayer"/><g class="treemaplayer"/><g class="sunburstlayer"/><g class="glimages"/><defs id="topdefs-56467a"><g class="clips"/><clipPath id="legend56467a"><rect width="111" height="67" x="0" y="0"/></clipPath></defs><g class="layer-above"><g class="imagelayer"/><g class="shapelayer"><g class="shape-group" data-index="0" clip-path="url(#clip56467ax)"><path data-index="0" fill-rule="evenodd" d="M414,551L414,34" style="opacity: 1; stroke: rgb(75, 85, 99); stroke-opacity: 0.76; fill: rgb(0, 0, 0); fill-opacity: 0; stroke-dasharray: 9px, 9px; stroke-width: 1.1px;"/></g><g class="shape-group" data-index="1" clip-path="url(#clip56467ay)"><path data-index="1" fill-rule="evenodd" d="M78,121.64L750,121.64" style="opacity: 1; stroke: rgb(0, 114, 178); stroke-opacity: 0.72; fill: rgb(0, 0, 0); fill-opacity: 0; stroke-dasharray: 9px, 9px; stroke-width: 1.1px;"/></g></g></g><g class="infolayer"><g class="legend" pointer-events="all" transform="translate(763.44,34)"><rect class="bg" shape-rendering="crispEdges" width="111" height="67" x="0" y="0" style="stroke: rgb(68, 68, 68); stroke-opacity: 1; fill: rgb(0, 0, 0); fill-opacity: 0; stroke-width: 0px;"/><g class="scrollbox" transform="" clip-path="url(#legend56467a)"><g class="groups"><g class="traces" transform="translate(0,14.5)" style="opacity: 1;"><text class="legendtext" text-anchor="start" x="40" y="4.29" style="font-family: -apple-system, BlinkMacSystemFont, 'Segoe UI', 'PingFang SC', Arial, sans-serif; font-size: 11px; fill: rgb(17, 24, 39); fill-opacity: 1; white-space: pre;">pristine_a_u</text><g class="layers" style="opacity: 1;"><g class="legendfill"/><g class="legendlines"><path class="js-line" d="M5,0h30" style="fill: none; stroke: rgb(0, 114, 178); stroke-opacity: 1; stroke-width: 1.8px;"/></g><g class="legendsymbols"><g class="legendpoints"><path class="scatterpts" transform="translate(20,0)" d="M3.6,0A3.6,3.6 0 1,1 0,-3.6A3.6,3.6 0 0,1 3.6,0Z" style="opacity: 1; stroke-width: 1px; fill: rgb(0, 114, 178); fill-opacity: 1; stroke: rgb(252, 252, 249); stroke-opacity: 1;"/></g></g></g><rect class="legendtoggle" x="0" y="-9.5" width="105.25" height="19" style="fill: rgb(0, 0, 0); fill-opacity: 0;"/></g><g class="traces" transform="translate(0,33.5)" style="opacity: 1;"><text class="legendtext" text-anchor="start" x="40" y="4.29" style="font-family: -apple-system, BlinkMacSystemFont, 'Segoe UI', 'PingFang SC', Arial, sans-serif; font-size: 11px; fill: rgb(17, 24, 39); fill-opacity: 1; white-space: pre;">annealed_a_u</text><g class="layers" style="opacity: 1;"><g class="legendfill"/><g class="legendlines"><path class="js-line" d="M5,0h30" style="fill: none; stroke: rgb(230, 159, 0); stroke-opacity: 1; stroke-dasharray: 9px, 9px; stroke-width: 1.8px;"/></g><g class="legendsymbols"><g class="legendpoints"><path class="scatterpts" transform="translate(20,0)" d="M3.6,0A3.6,3.6 0 1,1 0,-3.6A3.6,3.6 0 0,1 3.6,0Z" style="opacity: 1; stroke-width: 1px; fill: rgb(230, 159, 0); fill-opacity: 1; stroke: rgb(252, 252, 249); stroke-opacity: 1;"/></g></g></g><rect class="legendtoggle" x="0" y="-9.5" width="105.25" height="19" style="fill: rgb(0, 0, 0); fill-opacity: 0;"/></g><g class="traces" transform="translate(0,52.5)" style="opacity: 1;"><text class="legendtext" text-anchor="start" x="40" y="4.29" style="font-family: -apple-system, BlinkMacSystemFont, 'Segoe UI', 'PingFang SC', Arial, sans-serif; font-size: 11px; fill: rgb(17, 24, 39); fill-opacity: 1; white-space: pre;">doped_a_u</text><g class="layers" style="opacity: 1;"><g class="legendfill"/><g class="legendlines"><path class="js-line" d="M5,0h30" style="fill: none; stroke: rgb(213, 94, 0); stroke-opacity: 1; stroke-width: 2.2px;"/></g><g class="legendsymbols"><g class="legendpoints"><path class="scatterpts" transform="translate(20,0)" d="M3.6,0A3.6,3.6 0 1,1 0,-3.6A3.6,3.6 0 0,1 3.6,0Z" style="opacity: 1; stroke-width: 1px; fill: rgb(213, 94, 0); fill-opacity: 1; stroke: rgb(252, 252, 249); stroke-opacity: 1;"/></g></g></g><rect class="legendtoggle" x="0" y="-9.5" width="105.25" height="19" style="fill: rgb(0, 0, 0); fill-opacity: 0;"/></g></g></g><rect class="scrollbar" rx="20" ry="3" width="0" height="0" x="0" y="0" style="fill: rgb(128, 139, 164); fill-opacity: 1;"/></g><g class="g-gtitle"/><g class="g-xtitle"><text class="xtitle" x="414" y="592.6248046875" text-anchor="middle" style="opacity: 1; font-family: -apple-system, BlinkMacSystemFont, 'Segoe UI', 'PingFang SC', Arial, sans-serif; font-size: 13px; fill: rgb(17, 24, 39); fill-opacity: 1; white-space: pre;">Raman shift (cm^-1)</text></g><g class="g-ytitle"><text class="ytitle" transform="rotate(-90,26.61269531250001,292.5)" x="26.61269531250001" y="292.5" text-anchor="middle" style="opacity: 1; font-family: -apple-system, BlinkMacSystemFont, 'Segoe UI', 'PingFang SC', Arial, sans-serif; font-size: 13px; fill: rgb(17, 24, 39); fill-opacity: 1; white-space: pre;">Intensity (a.u.)</text></g><g class="annotation" data-index="0" style="opacity: 1;"><g class="annotation-text-g" transform="rotate(0,454,57.34000000000001)"><g class="cursor-pointer" transform="translate(414,44)"><rect class="bg" x="0.4" y="0.4" width="79.2" height="25.2" style="stroke-width: 0.8px; stroke: rgb(17, 24, 39); stroke-opacity: 0.22; fill: rgb(250, 250, 247); fill-opacity: 0.95;"/><text class="annotation-text" text-anchor="middle" x="39.784375" y="16.8" style="font-family: -apple-system, BlinkMacSystemFont, 'Segoe UI', 'PingFang SC', Arial, sans-serif; font-size: 10px; fill: rgb(75, 85, 99); fill-opacity: 1; white-space: pre;">D peak X=1350</text></g></g></g><g class="annotation" data-index="1" style="opacity: 1;"><g class="annotation-text-g"/></g></g></svg>