<svg class="main-svg" xmlns="http://www.w3.org/2000/svg" xmlns:xlink="http://www.w3.org/1999/xlink" width="936" height="615" style="" viewBox="0 0 936 615"><rect x="0" y="0" width="936" height="615" style="fill: rgb(250, 250, 247); fill-opacity: 1;"/><defs id="defs-d247c3"><g class="clips"><clipPath id="clipd247c3xyplot" class="plotclip"><rect width="822" height="517"/></clipPath><clipPath class="axesclip" id="clipd247c3x"><rect x="78" y="0" width="822" height="615"/></clipPath><clipPath class="axesclip" id="clipd247c3y"><rect x="0" y="34" width="936" height="517"/></clipPath><clipPath class="axesclip" id="clipd247c3xy"><rect x="78" y="34" width="822" height="517"/></clipPath></g><g class="gradients"/><g class="patterns"/></defs><g class="bglayer"/><g class="layer-below"><g class="imagelayer"/><g class="shapelayer"/></g><g class="cartesianlayer"><g class="subplot xy"><g class="layer-subplot"><g class="shapelayer"/><g class="imagelayer"/></g><g class="minor-gridlayer"><g class="x"/><g class="y"/></g><g class="gridlayer"><g class="x"/><g class="y"/></g><g class="zerolinelayer"/><g class="layer-between"><g class="shapelayer"/><g class="imagelayer"/></g><path class="xlines-below"/><path class="ylines-below"/><g class="overlines-below"/><g class="xaxislayer-below"/><g class="yaxislayer-below"/><g class="overaxes-below"/><g class="overplot"><g class="xy" transform="translate(78,34)"><g class="scatterlayer mlayer"><g class="trace scatter trace3fd48d" style="stroke-miterlimit: 2; opacity: 1;"><g class="fills" clip-path="url(#clipd247c3xyplot)"/><g class="errorbars"/><g class="lines"><path class="js-line" d="M-117.43,502.01Q-78.28,501.69 -58.71,501.37C-39.14,501.04 -19.57,500.77 0,500.06C19.57,499.35 39.16,498.69 58.71,497.12C78.31,495.54 97.95,493.87 117.43,490.59C137.09,487.28 156.82,483.39 176.14,477.27C195.98,470.99 215.74,463.14 234.86,453.13C254.93,442.63 274.48,429.47 293.57,415.15C313.68,400.06 332.93,381.97 352.29,364.37C372.09,346.37 391.1,325.91 411,308.25C430.26,291.16 449.27,272.7 469.71,259.93C488.54,248.16 508.38,237.14 528.43,233.13C547.56,229.31 568.03,230.52 587.14,235.12C607.22,239.96 626.76,251.58 645.86,262.68C665.96,274.37 685,290.29 704.57,304.12C724.15,317.96 743.36,333.18 763.29,345.67C782.53,357.72 802.05,369.09 822,378.01C841.22,386.6 860.94,393.24 880.71,398.61C900.09,403.88 919.8,407.03 939.43,410.1C958.94,413.15 978.56,414.83 998.14,417.02C1017.71,419.21 1037.3,420.93 1056.86,423.22C1076.44,425.51 1096.02,427.94 1115.57,430.74C1135.16,433.55 1154.73,436.74 1174.29,440.05C1193.88,443.37 1213.43,447.07 1233,450.63C1252.57,454.2 1272.13,457.95 1291.71,461.44C1311.27,464.93 1330.84,468.42 1350.43,471.58C1369.98,474.73 1389.55,477.72 1409.14,480.37C1428.69,483.02 1448.27,485.41 1467.86,487.49C1487.42,489.57 1506.99,491.33 1526.57,492.86C1546.13,494.39 1565.71,495.62 1585.29,496.68Q1604.86,497.74 1644,499.22" clip-path="url(#clipd247c3xyplot)" style="vector-effect: none; fill: none; stroke: rgb(0, 114, 178); stroke-opacity: 1; stroke-width: 2.2px; opacity: 1;"/></g><g class="points"><path class="point" transform="translate(-117.43,502.01)" d="M3.6,0A3.6,3.6 0 1,1 0,-3.6A3.6,3.6 0 0,1 3.6,0Z" display="none" style="opacity: 1; stroke-width: 1px; fill: rgb(0, 114, 178); fill-opacity: 1; stroke: rgb(252, 252, 249); stroke-opacity: 1;"/><path class="point" transform="translate(-58.71,501.37)" d="M3.6,0A3.6,3.6 0 1,1 0,-3.6A3.6,3.6 0 0,1 3.6,0Z" display="none" style="opacity: 1; stroke-width: 1px; fill: rgb(0, 114, 178); fill-opacity: 1; stroke: rgb(252, 252, 249); stroke-opacity: 1;"/><path class="point" transform="translate(0,500.06)" d="M3.6,0A3.6,3.6 0 1,1 0,-3.6A3.6,3.6 0 0,1 3.6,0Z" style="opacity: 1; stroke-width: 1px; fill: rgb(0, 114, 178); fill-opacity: 1; stroke: rgb(252, 252, 249); stroke-opacity: 1;"/><path class="point" transform="translate(58.71,497.12)" d="M3.6,0A3.6,3.6 0 1,1 0,-3.6A3.6,3.6 0 0,1 3.6,0Z" style="opacity: 1; stroke-width: 1px; fill: rgb(0, 114, 178); fill-opacity: 1; stroke: rgb(252, 252, 249); stroke-opacity: 1;"/><path class="point" transform="translate(117.43,490.59)" d="M3.6,0A3.6,3.6 0 1,1 0,-3.6A3.6,3.6 0 0,1 3.6,0Z" style="opacity: 1; stroke-width: 1px; fill: rgb(0, 114, 178); fill-opacity: 1; stroke: rgb(252, 252, 249); stroke-opacity: 1;"/><path class="point" transform="translate(176.14,477.27)" d="M3.6,0A3.6,3.6 0 1,1 0,-3.6A3.6,3.6 0 0,1 3.6,0Z" style="opacity: 1; stroke-width: 1px; fill: rgb(0, 114, 178); fill-opacity: 1; stroke: rgb(252, 252, 249); stroke-opacity: 1;"/><path class="point" transform="translate(234.86,453.13)" d="M3.6,0A3.6,3.6 0 1,1 0,-3.6A3.6,3.6 0 0,1 3.6,0Z" style="opacity: 1; stroke-width: 1px; fill: rgb(0, 114, 178); fill-opacity: 1; stroke: rgb(252, 252, 249); stroke-opacity: 1;"/><path class="point" transform="translate(293.57,415.15)" d="M3.6,0A3.6,3.6 0 1,1 0,-3.6A3.6,3.6 0 0,1 3.6,0Z" style="opacity: 1; stroke-width: 1px; fill: rgb(0, 114, 178); fill-opacity: 1; stroke: rgb(252, 252, 249); stroke-opacity: 1;"/><path class="point" transform="translate(352.29,364.37)" d="M3.6,0A3.6,3.6 0 1,1 0,-3.6A3.6,3.6 0 0,1 3.6,0Z" style="opacity: 1; stroke-width: 1px; fill: rgb(0, 114, 178); fill-opacity: 1; stroke: rgb(252, 252, 249); stroke-opacity: 1;"/><path class="point" transform="translate(411,308.25)" d="M3.6,0A3.6,3.6 0 1,1 0,-3.6A3.6,3.6 0 0,1 3.6,0Z" style="opacity: 1; stroke-width: 1px; fill: rgb(0, 114, 178); fill-opacity: 1; stroke: rgb(252, 252, 249); stroke-opacity: 1;"/><path class="point" transform="translate(469.71,259.93)" d="M3.6,0A3.6,3.6 0 1,1 0,-3.6A3.6,3.6 0 0,1 3.6,0Z" style="opacity: 1; stroke-width: 1px; fill: rgb(0, 114, 178); fill-opacity: 1; stroke: rgb(252, 252, 249); stroke-opacity: 1;"/><path class="point" transform="translate(528.43,233.13)" d="M3.6,0A3.6,3.6 0 1,1 0,-3.6A3.6,3.6 0 0,1 3.6,0Z" style="opacity: 1; stroke-width: 1px; fill: rgb(0, 114, 178); fill-opacity: 1; stroke: rgb(252, 252, 249); stroke-opacity: 1;"/><path class="point" transform="translate(587.14,235.12)" d="M3.6,0A3.6,3.6 0 1,1 0,-3.6A3.6,3.6 0 0,1 3.6,0Z" style="opacity: 1; stroke-width: 1px; fill: rgb(0, 114, 178); fill-opacity: 1; stroke: rgb(252, 252, 249); stroke-opacity: 1;"/><path class="point" transform="translate(645.86,262.68)" d="M3.6,0A3.6,3.6 0 1,1 0,-3.6A3.6,3.6 0 0,1 3.6,0Z" style="opacity: 1; stroke-width: 1px; fill: rgb(0, 114, 178); fill-opacity: 1; stroke: rgb(252, 252, 249); stroke-opacity: 1;"/><path class="point" transform="translate(704.57,304.12)" d="M3.6,0A3.6,3.6 0 1,1 0,-3.6A3.6,3.6 0 0,1 3.6,0Z" style="opacity: 1; stroke-width: 1px; fill: rgb(0, 114, 178); fill-opacity: 1; stroke: rgb(252, 252, 249); stroke-opacity: 1;"/><path class="point" transform="translate(763.29,345.67)" d="M3.6,0A3.6,3.6 0 1,1 0,-3.6A3.6,3.6 0 0,1 3.6,0Z" style="opacity: 1; stroke-width: 1px; fill: rgb(0, 114, 178); fill-opacity: 1; stroke: rgb(252, 252, 249); stroke-opacity: 1;"/><path class="point" transform="translate(822,378.01)" d="M3.6,0A3.6,3.6 0 1,1 0,-3.6A3.6,3.6 0 0,1 3.6,0Z" style="opacity: 1; stroke-width: 1px; fill: rgb(0, 114, 178); fill-opacity: 1; stroke: rgb(252, 252, 249); stroke-opacity: 1;"/><path class="point" transform="translate(880.71,398.61)" d="M3.6,0A3.6,3.6 0 1,1 0,-3.6A3.6,3.6 0 0,1 3.6,0Z" display="none" style="opacity: 1; stroke-width: 1px; fill: rgb(0, 114, 178); fill-opacity: 1; stroke: rgb(252, 252, 249); stroke-opacity: 1;"/><path class="point" transform="translate(939.43,410.1)" d="M3.6,0A3.6,3.6 0 1,1 0,-3.6A3.6,3.6 0 0,1 3.6,0Z" display="none" style="opacity: 1; stroke-width: 1px; fill: rgb(0, 114, 178); fill-opacity: 1; stroke: rgb(252, 252, 249); stroke-opacity: 1;"/><path class="point" transform="translate(998.14,417.02)" d="M3.6,0A3.6,3.6 0 1,1 0,-3.6A3.6,3.6 0 0,1 3.6,0Z" display="none" style="opacity: 1; stroke-width: 1px; fill: rgb(0, 114, 178); fill-opacity: 1; stroke: rgb(252, 252, 249); stroke-opacity: 1;"/><path class="point" transform="translate(1056.86,423.22)" d="M3.6,0A3.6,3.6 0 1,1 0,-3.6A3.6,3.6 0 0,1 3.6,0Z" display="none" style="opacity: 1; stroke-width: 1px; fill: rgb(0, 114, 178); fill-opacity: 1; stroke: rgb(252, 252, 249); stroke-opacity: 1;"/><path class="point" transform="translate(1115.57,430.74)" d="M3.6,0A3.6,3.6 0 1,1 0,-3.6A3.6,3.6 0 0,1 3.6,0Z" display="none" style="opacity: 1; stroke-width: 1px; fill: rgb(0, 114, 178); fill-opacity: 1; stroke: rgb(252, 252, 249); stroke-opacity: 1;"/><path class="point" transform="translate(1174.29,440.05)" d="M3.6,0A3.6,3.6 0 1,1 0,-3.6A3.6,3.6 0 0,1 3.6,0Z" display="none" style="opacity: 1; stroke-width: 1px; fill: rgb(0, 114, 178); fill-opacity: 1; stroke: rgb(252, 252, 249); stroke-opacity: 1;"/><path class="point" transform="translate(1233,450.63)" d="M3.6,0A3.6,3.6 0 1,1 0,-3.6A3.6,3.6 0 0,1 3.6,0Z" display="none" style="opacity: 1; stroke-width: 1px; fill: rgb(0, 114, 178); fill-opacity: 1; stroke: rgb(252, 252, 249); stroke-opacity: 1;"/><path class="point" transform="translate(1291.71,461.44)" d="M3.6,0A3.6,3.6 0 1,1 0,-3.6A3.6,3.6 0 0,1 3.6,0Z" display="none" style="opacity: 1; stroke-width: 1px; fill: rgb(0, 114, 178); fill-opacity: 1; stroke: rgb(252, 252, 249); stroke-opacity: 1;"/><path class="point" transform="translate(1350.43,471.58)" d="M3.6,0A3.6,3.6 0 1,1 0,-3.6A3.6,3.6 0 0,1 3.6,0Z" display="none" style="opacity: 1; stroke-width: 1px; fill: rgb(0, 114, 178); fill-opacity: 1; stroke: rgb(252, 252, 249); stroke-opacity: 1;"/><path class="point" transform="translate(1409.14,480.37)" d="M3.6,0A3.6,3.6 0 1,1 0,-3.6A3.6,3.6 0 0,1 3.6,0Z" display="none" style="opacity: 1; stroke-width: 1px; fill: rgb(0, 114, 178); fill-opacity: 1; stroke: rgb(252, 252, 249); stroke-opacity: 1;"/><path class="point" transform="translate(1467.86,487.49)" d="M3.6,0A3.6,3.6 0 1,1 0,-3.6A3.6,3.6 0 0,1 3.6,0Z" display="none" style="opacity: 1; stroke-width: 1px; fill: rgb(0, 114, 178); fill-opacity: 1; stroke: rgb(252, 252, 249); stroke-opacity: 1;"/><path class="point" transform="translate(1526.57,492.86)" d="M3.6,0A3.6,3.6 0 1,1 0,-3.6A3.6,3.6 0 0,1 3.6,0Z" display="none" style="opacity: 1; stroke-width: 1px; fill: rgb(0, 114, 178); fill-opacity: 1; stroke: rgb(252, 252, 249); stroke-opacity: 1;"/><path class="point" transform="translate(1585.29,496.68)" d="M3.6,0A3.6,3.6 0 1,1 0,-3.6A3.6,3.6 0 0,1 3.6,0Z" display="none" style="opacity: 1; stroke-width: 1px; fill: rgb(0, 114, 178); fill-opacity: 1; stroke: rgb(252, 252, 249); stroke-opacity: 1;"/><path class="point" transform="translate(1644,499.22)" d="M3.6,0A3.6,3.6 0 1,1 0,-3.6A3.6,3.6 0 0,1 3.6,0Z" display="none" style="opacity: 1; stroke-width: 1px; fill: rgb(0, 114, 178); fill-opacity: 1; stroke: rgb(252, 252, 249); stroke-opacity: 1;"/></g><g class="text"><g class="textpoint" display="none"/><g class="textpoint" display="none"/><g class="textpoint"/><g class="textpoint"/><g class="textpoint"/><g class="textpoint"/><g class="textpoint"/><g class="textpoint"/><g class="textpoint"/><g class="textpoint"/><g class="textpoint"/><g class="textpoint"/><g class="textpoint"/><g class="textpoint"/><g class="textpoint"/><g class="textpoint"/><g class="textpoint"/><g class="textpoint" display="none"/><g class="textpoint" display="none"/><g class="textpoint" display="none"/><g class="textpoint" display="none"/><g class="textpoint" display="none"/><g class="textpoint" display="none"/><g class="textpoint" display="none"/><g class="textpoint" display="none"/><g class="textpoint" display="none"/><g class="textpoint" display="none"/><g class="textpoint" display="none"/><g class="textpoint" display="none"/><g class="textpoint" display="none"/><g class="textpoint" display="none" transform="translate(5.5,2.75)"><text x="1644" y="499.22" text-anchor="start" style="font-family: -apple-system, BlinkMacSystemFont, 'Segoe UI', 'PingFang SC', Arial, sans-serif; font-size: 11px; fill: rgb(17, 24, 39); fill-opacity: 1; white-space: pre;">sample_low_a_u</text></g></g></g><g class="trace scatter trace7f89d4" style="stroke-miterlimit: 2; opacity: 1;"><g class="fills" clip-path="url(#clipd247c3xyplot)"/><g class="errorbars"/><g class="lines"><path class="js-line" d="M-117.43,501.65Q-78.28,501 -58.71,500.26C-39.13,499.52 -19.54,498.84 0,497.19C19.6,495.54 39.24,493.79 58.71,490.35C78.39,486.87 98.15,482.87 117.43,476.36C137.31,469.65 157.15,461.36 176.14,450.35C196.37,438.61 216.05,423.95 234.86,407.16C255.33,388.88 274.67,366.84 293.57,343.81C313.91,319.03 333,290.61 352.29,262.83C372.16,234.22 391.04,202.83 411,174.47C430.21,147.17 448.87,118.16 469.71,95.61C488.27,75.53 507.39,54.69 528.43,44.26C546.87,35.12 567.93,30 587.14,32.25C607.11,34.59 627.24,46.97 645.86,59.57C666.62,73.62 685.41,95.11 704.57,114.73C724.6,135.24 743.49,159.13 763.29,180.31C782.64,201.01 801.8,222.39 822,240.48C841.01,257.51 860.52,273.36 880.71,286.34C899.74,298.57 919.51,308.48 939.43,316.88C958.68,325 978.45,330.65 998.14,336.25C1017.6,341.78 1037.27,345.75 1056.86,350.33C1076.42,354.9 1096.03,358.94 1115.57,363.69C1135.18,368.46 1154.76,373.49 1174.29,378.92C1193.91,384.37 1213.46,390.33 1233,396.34C1252.6,402.37 1272.14,408.85 1291.71,415.07C1311.28,421.29 1330.82,427.69 1350.43,433.64C1369.97,439.57 1389.52,445.43 1409.14,450.74C1428.66,456.02 1448.24,461 1467.86,465.42C1487.38,469.81 1506.96,473.74 1526.57,477.19C1546.1,480.62 1565.69,483.53 1585.29,486.06Q1604.83,488.59 1644,492.38" clip-path="url(#clipd247c3xyplot)" style="vector-effect: none; fill: none; stroke: rgb(213, 94, 0); stroke-opacity: 1; stroke-width: 2.4px; opacity: 1;"/></g><g class="points"><path class="point" transform="translate(-117.43,501.65)" d="M3.6,0A3.6,3.6 0 1,1 0,-3.6A3.6,3.6 0 0,1 3.6,0Z" display="none" style="opacity: 1; stroke-width: 1px; fill: rgb(213, 94, 0); fill-opacity: 1; stroke: rgb(252, 252, 249); stroke-opacity: 1;"/><path class="point" transform="translate(-58.71,500.26)" d="M3.6,0A3.6,3.6 0 1,1 0,-3.6A3.6,3.6 0 0,1 3.6,0Z" display="none" style="opacity: 1; stroke-width: 1px; fill: rgb(213, 94, 0); fill-opacity: 1; stroke: rgb(252, 252, 249); stroke-opacity: 1;"/><path class="point" transform="translate(0,497.19)" d="M3.6,0A3.6,3.6 0 1,1 0,-3.6A3.6,3.6 0 0,1 3.6,0Z" style="opacity: 1; stroke-width: 1px; fill: rgb(213, 94, 0); fill-opacity: 1; stroke: rgb(252, 252, 249); stroke-opacity: 1;"/><path class="point" transform="translate(58.71,490.35)" d="M3.6,0A3.6,3.6 0 1,1 0,-3.6A3.6,3.6 0 0,1 3.6,0Z" style="opacity: 1; stroke-width: 1px; fill: rgb(213, 94, 0); fill-opacity: 1; stroke: rgb(252, 252, 249); stroke-opacity: 1;"/><path class="point" transform="translate(117.43,476.36)" d="M3.6,0A3.6,3.6 0 1,1 0,-3.6A3.6,3.6 0 0,1 3.6,0Z" style="opacity: 1; stroke-width: 1px; fill: rgb(213, 94, 0); fill-opacity: 1; stroke: rgb(252, 252, 249); stroke-opacity: 1;"/><path class="point" transform="translate(176.14,450.35)" d="M3.6,0A3.6,3.6 0 1,1 0,-3.6A3.6,3.6 0 0,1 3.6,0Z" style="opacity: 1; stroke-width: 1px; fill: rgb(213, 94, 0); fill-opacity: 1; stroke: rgb(252, 252, 249); stroke-opacity: 1;"/><path class="point" transform="translate(234.86,407.16)" d="M3.6,0A3.6,3.6 0 1,1 0,-3.6A3.6,3.6 0 0,1 3.6,0Z" style="opacity: 1; stroke-width: 1px; fill: rgb(213, 94, 0); fill-opacity: 1; stroke: rgb(252, 252, 249); stroke-opacity: 1;"/><path class="point" transform="translate(293.57,343.81)" d="M3.6,0A3.6,3.6 0 1,1 0,-3.6A3.6,3.6 0 0,1 3.6,0Z" style="opacity: 1; stroke-width: 1px; fill: rgb(213, 94, 0); fill-opacity: 1; stroke: rgb(252, 252, 249); stroke-opacity: 1;"/><path class="point" transform="translate(352.29,262.83)" d="M3.6,0A3.6,3.6 0 1,1 0,-3.6A3.6,3.6 0 0,1 3.6,0Z" style="opacity: 1; stroke-width: 1px; fill: rgb(213, 94, 0); fill-opacity: 1; stroke: rgb(252, 252, 249); stroke-opacity: 1;"/><path class="point" transform="translate(411,174.47)" d="M3.6,0A3.6,3.6 0 1,1 0,-3.6A3.6,3.6 0 0,1 3.6,0Z" style="opacity: 1; stroke-width: 1px; fill: rgb(213, 94, 0); fill-opacity: 1; stroke: rgb(252, 252, 249); stroke-opacity: 1;"/><path class="point" transform="translate(469.71,95.61)" d="M3.6,0A3.6,3.6 0 1,1 0,-3.6A3.6,3.6 0 0,1 3.6,0Z" style="opacity: 1; stroke-width: 1px; fill: rgb(213, 94, 0); fill-opacity: 1; stroke: rgb(252, 252, 249); stroke-opacity: 1;"/><path class="point" transform="translate(528.43,44.26)" d="M3.6,0A3.6,3.6 0 1,1 0,-3.6A3.6,3.6 0 0,1 3.6,0Z" style="opacity: 1; stroke-width: 1px; fill: rgb(213, 94, 0); fill-opacity: 1; stroke: rgb(252, 252, 249); stroke-opacity: 1;"/><path class="point" transform="translate(587.14,32.25)" d="M3.6,0A3.6,3.6 0 1,1 0,-3.6A3.6,3.6 0 0,1 3.6,0Z" style="opacity: 1; stroke-width: 1px; fill: rgb(213, 94, 0); fill-opacity: 1; stroke: rgb(252, 252, 249); stroke-opacity: 1;"/><path class="point" transform="translate(645.86,59.57)" d="M3.6,0A3.6,3.6 0 1,1 0,-3.6A3.6,3.6 0 0,1 3.6,0Z" style="opacity: 1; stroke-width: 1px; fill: rgb(213, 94, 0); fill-opacity: 1; stroke: rgb(252, 252, 249); stroke-opacity: 1;"/><path class="point" transform="translate(704.57,114.73)" d="M3.6,0A3.6,3.6 0 1,1 0,-3.6A3.6,3.6 0 0,1 3.6,0Z" style="opacity: 1; stroke-width: 1px; fill: rgb(213, 94, 0); fill-opacity: 1; stroke: rgb(252, 252, 249); stroke-opacity: 1;"/><path class="point" transform="translate(763.29,180.31)" d="M3.6,0A3.6,3.6 0 1,1 0,-3.6A3.6,3.6 0 0,1 3.6,0Z" style="opacity: 1; stroke-width: 1px; fill: rgb(213, 94, 0); fill-opacity: 1; stroke: rgb(252, 252, 249); stroke-opacity: 1;"/><path class="point" transform="translate(822,240.48)" d="M3.6,0A3.6,3.6 0 1,1 0,-3.6A3.6,3.6 0 0,1 3.6,0Z" style="opacity: 1; stroke-width: 1px; fill: rgb(213, 94, 0); fill-opacity: 1; stroke: rgb(252, 252, 249); stroke-opacity: 1;"/><path class="point" transform="translate(880.71,286.34)" d="M3.6,0A3.6,3.6 0 1,1 0,-3.6A3.6,3.6 0 0,1 3.6,0Z" display="none" style="opacity: 1; stroke-width: 1px; fill: rgb(213, 94, 0); fill-opacity: 1; stroke: rgb(252, 252, 249); stroke-opacity: 1;"/><path class="point" transform="translate(939.43,316.88)" d="M3.6,0A3.6,3.6 0 1,1 0,-3.6A3.6,3.6 0 0,1 3.6,0Z" display="none" style="opacity: 1; stroke-width: 1px; fill: rgb(213, 94, 0); fill-opacity: 1; stroke: rgb(252, 252, 249); stroke-opacity: 1;"/><path class="point" transform="translate(998.14,336.25)" d="M3.6,0A3.6,3.6 0 1,1 0,-3.6A3.6,3.6 0 0,1 3.6,0Z" display="none" style="opacity: 1; stroke-width: 1px; fill: rgb(213, 94, 0); fill-opacity: 1; stroke: rgb(252, 252, 249); stroke-opacity: 1;"/><path class="point" transform="translate(1056.86,350.33)" d="M3.6,0A3.6,3.6 0 1,1 0,-3.6A3.6,3.6 0 0,1 3.6,0Z" display="none" style="opacity: 1; stroke-width: 1px; fill: rgb(213, 94, 0); fill-opacity: 1; stroke: rgb(252, 252, 249); stroke-opacity: 1;"/><path class="point" transform="translate(1115.57,363.69)" d="M3.6,0A3.6,3.6 0 1,1 0,-3.6A3.6,3.6 0 0,1 3.6,0Z" display="none" style="opacity: 1; stroke-width: 1px; fill: rgb(213, 94, 0); fill-opacity: 1; stroke: rgb(252, 252, 249); stroke-opacity: 1;"/><path class="point" transform="translate(1174.29,378.92)" d="M3.6,0A3.6,3.6 0 1,1 0,-3.6A3.6,3.6 0 0,1 3.6,0Z" display="none" style="opacity: 1; stroke-width: 1px; fill: rgb(213, 94, 0); fill-opacity: 1; stroke: rgb(252, 252, 249); stroke-opacity: 1;"/><path class="point" transform="translate(1233,396.34)" d="M3.6,0A3.6,3.6 0 1,1 0,-3.6A3.6,3.6 0 0,1 3.6,0Z" display="none" style="opacity: 1; stroke-width: 1px; fill: rgb(213, 94, 0); fill-opacity: 1; stroke: rgb(252, 252, 249); stroke-opacity: 1;"/><path class="point" transform="translate(1291.71,415.07)" d="M3.6,0A3.6,3.6 0 1,1 0,-3.6A3.6,3.6 0 0,1 3.6,0Z" display="none" style="opacity: 1; stroke-width: 1px; fill: rgb(213, 94, 0); fill-opacity: 1; stroke: rgb(252, 252, 249); stroke-opacity: 1;"/><path class="point" transform="translate(1350.43,433.64)" d="M3.6,0A3.6,3.6 0 1,1 0,-3.6A3.6,3.6 0 0,1 3.6,0Z" display="none" style="opacity: 1; stroke-width: 1px; fill: rgb(213, 94, 0); fill-opacity: 1; stroke: rgb(252, 252, 249); stroke-opacity: 1;"/><path class="point" transform="translate(1409.14,450.74)" d="M3.6,0A3.6,3.6 0 1,1 0,-3.6A3.6,3.6 0 0,1 3.6,0Z" display="none" style="opacity: 1; stroke-width: 1px; fill: rgb(213, 94, 0); fill-opacity: 1; stroke: rgb(252, 252, 249); stroke-opacity: 1;"/><path class="point" transform="translate(1467.86,465.42)" d="M3.6,0A3.6,3.6 0 1,1 0,-3.6A3.6,3.6 0 0,1 3.6,0Z" display="none" style="opacity: 1; stroke-width: 1px; fill: rgb(213, 94, 0); fill-opacity: 1; stroke: rgb(252, 252, 249); stroke-opacity: 1;"/><path class="point" transform="translate(1526.57,477.19)" d="M3.6,0A3.6,3.6 0 1,1 0,-3.6A3.6,3.6 0 0,1 3.6,0Z" display="none" style="opacity: 1; stroke-width: 1px; fill: rgb(213, 94, 0); fill-opacity: 1; stroke: rgb(252, 252, 249); stroke-opacity: 1;"/><path class="point" transform="translate(1585.29,486.06)" d="M3.6,0A3.6,3.6 0 1,1 0,-3.6A3.6,3.6 0 0,1 3.6,0Z" display="none" style="opacity: 1; stroke-width: 1px; fill: rgb(213, 94, 0); fill-opacity: 1; stroke: rgb(252, 252, 249); stroke-opacity: 1;"/><path class="point" transform="translate(1644,492.38)" d="M3.6,0A3.6,3.6 0 1,1 0,-3.6A3.6,3.6 0 0,1 3.6,0Z" display="none" style="opacity: 1; stroke-width: 1px; fill: rgb(213, 94, 0); fill-opacity: 1; stroke: rgb(252, 252, 249); stroke-opacity: 1;"/></g><g class="text"><g class="textpoint" display="none"/><g class="textpoint" display="none"/><g class="textpoint"/><g class="textpoint"/><g class="textpoint"/><g class="textpoint"/><g class="textpoint"/><g class="textpoint"/><g class="textpoint"/><g class="textpoint"/><g class="textpoint"/><g class="textpoint"/><g class="textpoint"/><g class="textpoint"/><g class="textpoint"/><g class="textpoint"/><g class="textpoint"/><g class="textpoint" display="none"/><g class="textpoint" display="none"/><g class="textpoint" display="none"/><g class="textpoint" display="none"/><g class="textpoint" display="none"/><g class="textpoint" display="none"/><g class="textpoint" display="none"/><g class="textpoint" display="none"/><g class="textpoint" display="none"/><g class="textpoint" display="none"/><g class="textpoint" display="none"/><g class="textpoint" display="none"/><g class="textpoint" display="none"/><g class="textpoint" display="none" transform="translate(5.5,2.75)"><text x="1644" y="492.38" text-anchor="start" style="font-family: -apple-system, BlinkMacSystemFont, 'Segoe UI', 'PingFang SC', Arial, sans-serif; font-size: 11px; fill: rgb(17, 24, 39); fill-opacity: 1; white-space: pre;">sample_high_a_u</text></g></g></g><g class="trace scatter trace5c6710" style="stroke-miterlimit: 2; opacity: 1;"><g class="fills" clip-path="url(#clipd247c3xyplot)"/><g class="errorbars"/><g class="lines"><path class="js-line" d="M-117.43,501.69Q-78.28,501.12 -58.71,500.58C-39.14,500.04 -19.56,499.5 0,498.43C19.58,497.35 39.17,496.19 58.71,494.13C78.32,492.06 97.95,489.72 117.43,486.02C137.1,482.28 156.78,477.88 176.14,471.74C195.93,465.47 215.64,457.93 234.86,448.6C254.81,438.92 274.43,427.33 293.57,414.36C313.61,400.78 333.07,384.9 352.29,368.5C372.24,351.48 391.53,332.36 411,313.86C430.67,295.17 449.84,274.95 469.71,256.91C489,239.4 508.14,221.11 528.43,207.04C547.38,193.9 566.92,181.14 587.14,174.31C606.14,167.9 626.45,164.4 645.86,165.88C665.6,167.38 685.66,174.66 704.57,183.69C724.91,193.4 744.23,208.55 763.29,223.54C783.43,239.38 802.57,258.6 822,276.75C841.71,295.16 860.92,315.11 880.71,333.27C900.07,351.04 919.43,368.93 939.43,384.61C958.61,399.65 978.13,413.78 998.14,425.77C1017.31,437.25 1036.98,447.18 1056.86,455.44C1076.14,463.45 1095.84,469.65 1115.57,474.88C1134.99,480.02 1154.65,483.58 1174.29,486.66C1193.8,489.72 1213.41,491.61 1233,493.34C1252.55,495.07 1272.13,496.08 1291.71,497.04C1311.28,498 1330.86,498.55 1350.43,499.1C1370,499.65 1389.57,500 1409.14,500.34C1428.71,500.68 1448.29,500.9 1467.86,501.13C1487.43,501.35 1507,501.53 1526.57,501.69C1546.14,501.85 1565.72,501.98 1585.29,502.09Q1604.86,502.2 1644,502.36" clip-path="url(#clipd247c3xyplot)" style="vector-effect: none; fill: none; stroke: rgb(75, 85, 99); stroke-opacity: 1; stroke-dasharray: 9px, 9px; stroke-width: 1.9px; opacity: 1;"/></g><g class="points"><path class="point" transform="translate(-117.43,501.69)" d="M3.6,0A3.6,3.6 0 1,1 0,-3.6A3.6,3.6 0 0,1 3.6,0Z" display="none" style="opacity: 1; stroke-width: 1px; fill: rgb(75, 85, 99); fill-opacity: 1; stroke: rgb(252, 252, 249); stroke-opacity: 1;"/><path class="point" transform="translate(-58.71,500.58)" d="M3.6,0A3.6,3.6 0 1,1 0,-3.6A3.6,3.6 0 0,1 3.6,0Z" display="none" style="opacity: 1; stroke-width: 1px; fill: rgb(75, 85, 99); fill-opacity: 1; stroke: rgb(252, 252, 249); stroke-opacity: 1;"/><path class="point" transform="translate(0,498.43)" d="M3.6,0A3.6,3.6 0 1,1 0,-3.6A3.6,3.6 0 0,1 3.6,0Z" style="opacity: 1; stroke-width: 1px; fill: rgb(75, 85, 99); fill-opacity: 1; stroke: rgb(252, 252, 249); stroke-opacity: 1;"/><path class="point" transform="translate(58.71,494.13)" d="M3.6,0A3.6,3.6 0 1,1 0,-3.6A3.6,3.6 0 0,1 3.6,0Z" style="opacity: 1; stroke-width: 1px; fill: rgb(75, 85, 99); fill-opacity: 1; stroke: rgb(252, 252, 249); stroke-opacity: 1;"/><path class="point" transform="translate(117.43,486.02)" d="M3.6,0A3.6,3.6 0 1,1 0,-3.6A3.6,3.6 0 0,1 3.6,0Z" style="opacity: 1; stroke-width: 1px; fill: rgb(75, 85, 99); fill-opacity: 1; stroke: rgb(252, 252, 249); stroke-opacity: 1;"/><path class="point" transform="translate(176.14,471.74)" d="M3.6,0A3.6,3.6 0 1,1 0,-3.6A3.6,3.6 0 0,1 3.6,0Z" style="opacity: 1; stroke-width: 1px; fill: rgb(75, 85, 99); fill-opacity: 1; stroke: rgb(252, 252, 249); stroke-opacity: 1;"/><path class="point" transform="translate(234.86,448.6)" d="M3.6,0A3.6,3.6 0 1,1 0,-3.6A3.6,3.6 0 0,1 3.6,0Z" style="opacity: 1; stroke-width: 1px; fill: rgb(75, 85, 99); fill-opacity: 1; stroke: rgb(252, 252, 249); stroke-opacity: 1;"/><path class="point" transform="translate(293.57,414.36)" d="M3.6,0A3.6,3.6 0 1,1 0,-3.6A3.6,3.6 0 0,1 3.6,0Z" style="opacity: 1; stroke-width: 1px; fill: rgb(75, 85, 99); fill-opacity: 1; stroke: rgb(252, 252, 249); stroke-opacity: 1;"/><path class="point" transform="translate(352.29,368.5)" d="M3.6,0A3.6,3.6 0 1,1 0,-3.6A3.6,3.6 0 0,1 3.6,0Z" style="opacity: 1; stroke-width: 1px; fill: rgb(75, 85, 99); fill-opacity: 1; stroke: rgb(252, 252, 249); stroke-opacity: 1;"/><path class="point" transform="translate(411,313.86)" d="M3.6,0A3.6,3.6 0 1,1 0,-3.6A3.6,3.6 0 0,1 3.6,0Z" style="opacity: 1; stroke-width: 1px; fill: rgb(75, 85, 99); fill-opacity: 1; stroke: rgb(252, 252, 249); stroke-opacity: 1;"/><path class="point" transform="translate(469.71,256.91)" d="M3.6,0A3.6,3.6 0 1,1 0,-3.6A3.6,3.6 0 0,1 3.6,0Z" style="opacity: 1; stroke-width: 1px; fill: rgb(75, 85, 99); fill-opacity: 1; stroke: rgb(252, 252, 249); stroke-opacity: 1;"/><path class="point" transform="translate(528.43,207.04)" d="M3.6,0A3.6,3.6 0 1,1 0,-3.6A3.6,3.6 0 0,1 3.6,0Z" style="opacity: 1; stroke-width: 1px; fill: rgb(75, 85, 99); fill-opacity: 1; stroke: rgb(252, 252, 249); stroke-opacity: 1;"/><path class="point" transform="translate(587.14,174.31)" d="M3.6,0A3.6,3.6 0 1,1 0,-3.6A3.6,3.6 0 0,1 3.6,0Z" style="opacity: 1; stroke-width: 1px; fill: rgb(75, 85, 99); fill-opacity: 1; stroke: rgb(252, 252, 249); stroke-opacity: 1;"/><path class="point" transform="translate(645.86,165.88)" d="M3.6,0A3.6,3.6 0 1,1 0,-3.6A3.6,3.6 0 0,1 3.6,0Z" style="opacity: 1; stroke-width: 1px; fill: rgb(75, 85, 99); fill-opacity: 1; stroke: rgb(252, 252, 249); stroke-opacity: 1;"/><path class="point" transform="translate(704.57,183.69)" d="M3.6,0A3.6,3.6 0 1,1 0,-3.6A3.6,3.6 0 0,1 3.6,0Z" style="opacity: 1; stroke-width: 1px; fill: rgb(75, 85, 99); fill-opacity: 1; stroke: rgb(252, 252, 249); stroke-opacity: 1;"/><path class="point" transform="translate(763.29,223.54)" d="M3.6,0A3.6,3.6 0 1,1 0,-3.6A3.6,3.6 0 0,1 3.6,0Z" style="opacity: 1; stroke-width: 1px; fill: rgb(75, 85, 99); fill-opacity: 1; stroke: rgb(252, 252, 249); stroke-opacity: 1;"/><path class="point" transform="translate(822,276.75)" d="M3.6,0A3.6,3.6 0 1,1 0,-3.6A3.6,3.6 0 0,1 3.6,0Z" style="opacity: 1; stroke-width: 1px; fill: rgb(75, 85, 99); fill-opacity: 1; stroke: rgb(252, 252, 249); stroke-opacity: 1;"/><path class="point" transform="translate(880.71,333.27)" d="M3.6,0A3.6,3.6 0 1,1 0,-3.6A3.6,3.6 0 0,1 3.6,0Z" display="none" style="opacity: 1; stroke-width: 1px; fill: rgb(75, 85, 99); fill-opacity: 1; stroke: rgb(252, 252, 249); stroke-opacity: 1;"/><path class="point" transform="translate(939.43,384.61)" d="M3.6,0A3.6,3.6 0 1,1 0,-3.6A3.6,3.6 0 0,1 3.6,0Z" display="none" style="opacity: 1; stroke-width: 1px; fill: rgb(75, 85, 99); fill-opacity: 1; stroke: rgb(252, 252, 249); stroke-opacity: 1;"/><path class="point" transform="translate(998.14,425.77)" d="M3.6,0A3.6,3.6 0 1,1 0,-3.6A3.6,3.6 0 0,1 3.6,0Z" display="none" style="opacity: 1; stroke-width: 1px; fill: rgb(75, 85, 99); fill-opacity: 1; stroke: rgb(252, 252, 249); stroke-opacity: 1;"/><path class="point" transform="translate(1056.86,455.44)" d="M3.6,0A3.6,3.6 0 1,1 0,-3.6A3.6,3.6 0 0,1 3.6,0Z" display="none" style="opacity: 1; stroke-width: 1px; fill: rgb(75, 85, 99); fill-opacity: 1; stroke: rgb(252, 252, 249); stroke-opacity: 1;"/><path class="point" transform="translate(1115.57,474.88)" d="M3.6,0A3.6,3.6 0 1,1 0,-3.6A3.6,3.6 0 0,1 3.6,0Z" display="none" style="opacity: 1; stroke-width: 1px; fill: rgb(75, 85, 99); fill-opacity: 1; stroke: rgb(252, 252, 249); stroke-opacity: 1;"/><path class="point" transform="translate(1174.29,486.66)" d="M3.6,0A3.6,3.6 0 1,1 0,-3.6A3.6,3.6 0 0,1 3.6,0Z" display="none" style="opacity: 1; stroke-width: 1px; fill: rgb(75, 85, 99); fill-opacity: 1; stroke: rgb(252, 252, 249); stroke-opacity: 1;"/><path class="point" transform="translate(1233,493.34)" d="M3.6,0A3.6,3.6 0 1,1 0,-3.6A3.6,3.6 0 0,1 3.6,0Z" display="none" style="opacity: 1; stroke-width: 1px; fill: rgb(75, 85, 99); fill-opacity: 1; stroke: rgb(252, 252, 249); stroke-opacity: 1;"/><path class="point" transform="translate(1291.71,497.04)" d="M3.6,0A3.6,3.6 0 1,1 0,-3.6A3.6,3.6 0 0,1 3.6,0Z" display="none" style="opacity: 1; stroke-width: 1px; fill: rgb(75, 85, 99); fill-opacity: 1; stroke: rgb(252, 252, 249); stroke-opacity: 1;"/><path class="point" transform="translate(1350.43,499.1)" d="M3.6,0A3.6,3.6 0 1,1 0,-3.6A3.6,3.6 0 0,1 3.6,0Z" display="none" style="opacity: 1; stroke-width: 1px; fill: rgb(75, 85, 99); fill-opacity: 1; stroke: rgb(252, 252, 249); stroke-opacity: 1;"/><path class="point" transform="translate(1409.14,500.34)" d="M3.6,0A3.6,3.6 0 1,1 0,-3.6A3.6,3.6 0 0,1 3.6,0Z" display="none" style="opacity: 1; stroke-width: 1px; fill: rgb(75, 85, 99); fill-opacity: 1; stroke: rgb(252, 252, 249); stroke-opacity: 1;"/><path class="point" transform="translate(1467.86,501.13)" d="M3.6,0A3.6,3.6 0 1,1 0,-3.6A3.6,3.6 0 0,1 3.6,0Z" display="none" style="opacity: 1; stroke-width: 1px; fill: rgb(75, 85, 99); fill-opacity: 1; stroke: rgb(252, 252, 249); stroke-opacity: 1;"/><path class="point" transform="translate(1526.57,501.69)" d="M3.6,0A3.6,3.6 0 1,1 0,-3.6A3.6,3.6 0 0,1 3.6,0Z" display="none" style="opacity: 1; stroke-width: 1px; fill: rgb(75, 85, 99); fill-opacity: 1; stroke: rgb(252, 252, 249); stroke-opacity: 1;"/><path class="point" transform="translate(1585.29,502.09)" d="M3.6,0A3.6,3.6 0 1,1 0,-3.6A3.6,3.6 0 0,1 3.6,0Z" display="none" style="opacity: 1; stroke-width: 1px; fill: rgb(75, 85, 99); fill-opacity: 1; stroke: rgb(252, 252, 249); stroke-opacity: 1;"/><path class="point" transform="translate(1644,502.36)" d="M3.6,0A3.6,3.6 0 1,1 0,-3.6A3.6,3.6 0 0,1 3.6,0Z" display="none" style="opacity: 1; stroke-width: 1px; fill: rgb(75, 85, 99); fill-opacity: 1; stroke: rgb(252, 252, 249); stroke-opacity: 1;"/></g><g class="text"><g class="textpoint" display="none"/><g class="textpoint" display="none"/><g class="textpoint"/><g class="textpoint"/><g class="textpoint"/><g class="textpoint"/><g class="textpoint"/><g class="textpoint"/><g class="textpoint"/><g class="textpoint"/><g class="textpoint"/><g class="textpoint"/><g class="textpoint"/><g class="textpoint"/><g class="textpoint"/><g class="textpoint"/><g class="textpoint"/><g class="textpoint" display="none"/><g class="textpoint" display="none"/><g class="textpoint" display="none"/><g class="textpoint" display="none"/><g class="textpoint" display="none"/><g class="textpoint" display="none"/><g class="textpoint" display="none"/><g class="textpoint" display="none"/><g class="textpoint" display="none"/><g class="textpoint" display="none"/><g class="textpoint" display="none"/><g class="textpoint" display="none"/><g class="textpoint" display="none"/><g class="textpoint" display="none" transform="translate(5.5,2.75)"><text x="1644" y="502.36" text-anchor="start" style="font-family: -apple-system, BlinkMacSystemFont, 'Segoe UI', 'PingFang SC', Arial, sans-serif; font-size: 11px; fill: rgb(17, 24, 39); fill-opacity: 1; white-space: pre;">reference_a_u</text></g></g></g></g></g></g><g class="zerolinelayer-above"/><path class="xlines-above crisp" d="M76.95,551.525H901.05M76.95,33.475H901.05" style="fill: none; stroke-width: 1.05px; stroke: rgb(17, 24, 39); stroke-opacity: 1;"/><path class="ylines-above crisp" d="M77.475,34V551M900.525,34V551" style="fill: none; stroke-width: 1.05px; stroke: rgb(17, 24, 39); stroke-opacity: 1;"/><g class="overlines-above"/><g class="xaxislayer-above"><path class="xtick ticks crisp" d="M0,552.05v5" transform="translate(78,0)" style="stroke: rgb(68, 68, 68); stroke-opacity: 1; stroke-width: 1px;"/><path class="xtick ticks crisp" d="M0,552.05v5" transform="translate(195.43,0)" style="stroke: rgb(68, 68, 68); stroke-opacity: 1; stroke-width: 1px;"/><path class="xtick ticks crisp" d="M0,552.05v5" transform="translate(312.86,0)" style="stroke: rgb(68, 68, 68); stroke-opacity: 1; stroke-width: 1px;"/><path class="xtick ticks crisp" d="M0,552.05v5" transform="translate(430.29,0)" style="stroke: rgb(68, 68, 68); stroke-opacity: 1; stroke-width: 1px;"/><path class="xtick ticks crisp" d="M0,552.05v5" transform="translate(547.71,0)" style="stroke: rgb(68, 68, 68); stroke-opacity: 1; stroke-width: 1px;"/><path class="xtick ticks crisp" d="M0,552.05v5" transform="translate(665.14,0)" style="stroke: rgb(68, 68, 68); stroke-opacity: 1; stroke-width: 1px;"/><path class="xtick ticks crisp" d="M0,552.05v5" transform="translate(782.57,0)" style="stroke: rgb(68, 68, 68); stroke-opacity: 1; stroke-width: 1px;"/><path class="xtick ticks crisp" d="M0,552.05v5" transform="translate(900,0)" style="stroke: rgb(68, 68, 68); stroke-opacity: 1; stroke-width: 1px;"/><g class="xtick"><text text-anchor="middle" x="0" y="569.05" transform="translate(78,0)" style="font-family: -apple-system, BlinkMacSystemFont, 'Segoe UI', 'PingFang SC', Arial, sans-serif; font-size: 10px; fill: rgb(17, 24, 39); fill-opacity: 1; white-space: pre;">440</text></g><g class="xtick"><text text-anchor="middle" x="0" y="569.05" style="font-family: -apple-system, BlinkMacSystemFont, 'Segoe UI', 'PingFang SC', Arial, sans-serif; font-size: 10px; fill: rgb(17, 24, 39); fill-opacity: 1; white-space: pre;" transform="translate(195.43,0)">460</text></g><g class="xtick"><text text-anchor="middle" x="0" y="569.05" style="font-family: -apple-system, BlinkMacSystemFont, 'Segoe UI', 'PingFang SC', Arial, sans-serif; font-size: 10px; fill: rgb(17, 24, 39); fill-opacity: 1; white-space: pre;" transform="translate(312.86,0)">480</text></g><g class="xtick"><text text-anchor="middle" x="0" y="569.05" style="font-family: -apple-system, BlinkMacSystemFont, 'Segoe UI', 'PingFang SC', Arial, sans-serif; font-size: 10px; fill: rgb(17, 24, 39); fill-opacity: 1; white-space: pre;" transform="translate(430.29,0)">500</text></g><g class="xtick"><text text-anchor="middle" x="0" y="569.05" style="font-family: -apple-system, BlinkMacSystemFont, 'Segoe UI', 'PingFang SC', Arial, sans-serif; font-size: 10px; fill: rgb(17, 24, 39); fill-opacity: 1; white-space: pre;" transform="translate(547.71,0)">520</text></g><g class="xtick"><text text-anchor="middle" x="0" y="569.05" style="font-family: -apple-system, BlinkMacSystemFont, 'Segoe UI', 'PingFang SC', Arial, sans-serif; font-size: 10px; fill: rgb(17, 24, 39); fill-opacity: 1; white-space: pre;" transform="translate(665.14,0)">540</text></g><g class="xtick"><text text-anchor="middle" x="0" y="569.05" style="font-family: -apple-system, BlinkMacSystemFont, 'Segoe UI', 'PingFang SC', Arial, sans-serif; font-size: 10px; fill: rgb(17, 24, 39); fill-opacity: 1; white-space: pre;" transform="translate(782.57,0)">560</text></g><g class="xtick"><text text-anchor="middle" x="0" y="569.05" style="font-family: -apple-system, BlinkMacSystemFont, 'Segoe UI', 'PingFang SC', Arial, sans-serif; font-size: 10px; fill: rgb(17, 24, 39); fill-opacity: 1; white-space: pre;" transform="translate(900,0)">580</text></g></g><g class="yaxislayer-above"><path class="ytick ticks crisp" d="M76.94999999999999,0h-5" transform="translate(0,551)" style="stroke: rgb(68, 68, 68); stroke-opacity: 1; stroke-width: 1px;"/><path class="ytick ticks crisp" d="M76.94999999999999,0h-5" transform="translate(0,471.46)" style="stroke: rgb(68, 68, 68); stroke-opacity: 1; stroke-width: 1px;"/><path class="ytick ticks crisp" d="M76.94999999999999,0h-5" transform="translate(0,391.92)" style="stroke: rgb(68, 68, 68); stroke-opacity: 1; stroke-width: 1px;"/><path class="ytick ticks crisp" d="M76.94999999999999,0h-5" transform="translate(0,312.38)" style="stroke: rgb(68, 68, 68); stroke-opacity: 1; stroke-width: 1px;"/><path class="ytick ticks crisp" d="M76.94999999999999,0h-5" transform="translate(0,232.85)" style="stroke: rgb(68, 68, 68); stroke-opacity: 1; stroke-width: 1px;"/><path class="ytick ticks crisp" d="M76.94999999999999,0h-5" transform="translate(0,153.31)" style="stroke: rgb(68, 68, 68); stroke-opacity: 1; stroke-width: 1px;"/><path class="ytick ticks crisp" d="M76.94999999999999,0h-5" transform="translate(0,73.77000000000001)" style="stroke: rgb(68, 68, 68); stroke-opacity: 1; stroke-width: 1px;"/><g class="ytick"><text text-anchor="end" x="69.94999999999999" y="3.5" transform="translate(0,551)" style="font-family: -apple-system, BlinkMacSystemFont, 'Segoe UI', 'PingFang SC', Arial, sans-serif; font-size: 10px; fill: rgb(17, 24, 39); fill-opacity: 1; white-space: pre;">0</text></g><g class="ytick"><text text-anchor="end" x="69.94999999999999" y="3.5" style="font-family: -apple-system, BlinkMacSystemFont, 'Segoe UI', 'PingFang SC', Arial, sans-serif; font-size: 10px; fill: rgb(17, 24, 39); fill-opacity: 1; white-space: pre;" transform="translate(0,471.46)">0.2</text></g><g class="ytick"><text text-anchor="end" x="69.94999999999999" y="3.5" style="font-family: -apple-system, BlinkMacSystemFont, 'Segoe UI', 'PingFang SC', Arial, sans-serif; font-size: 10px; fill: rgb(17, 24, 39); fill-opacity: 1; white-space: pre;" transform="translate(0,391.92)">0.4</text></g><g class="ytick"><text text-anchor="end" x="69.94999999999999" y="3.5" style="font-family: -apple-system, BlinkMacSystemFont, 'Segoe UI', 'PingFang SC', Arial, sans-serif; font-size: 10px; fill: rgb(17, 24, 39); fill-opacity: 1; white-space: pre;" transform="translate(0,312.38)">0.6</text></g><g class="ytick"><text text-anchor="end" x="69.94999999999999" y="3.5" style="font-family: -apple-system, BlinkMacSystemFont, 'Segoe UI', 'PingFang SC', Arial, sans-serif; font-size: 10px; fill: rgb(17, 24, 39); fill-opacity: 1; white-space: pre;" transform="translate(0,232.85)">0.8</text></g><g class="ytick"><text text-anchor="end" x="69.94999999999999" y="3.5" style="font-family: -apple-system, BlinkMacSystemFont, 'Segoe UI', 'PingFang SC', Arial, sans-serif; font-size: 10px; fill: rgb(17, 24, 39); fill-opacity: 1; white-space: pre;" transform="translate(0,153.31)">1</text></g><g class="ytick"><text text-anchor="end" x="69.94999999999999" y="3.5" style="font-family: -apple-system, BlinkMacSystemFont, 'Segoe UI', 'PingFang SC', Arial, sans-serif; font-size: 10px; fill: rgb(17, 24, 39); fill-opacity: 1; white-space: pre;" transform="translate(0,73.77000000000001)">1.2</text></g></g><g class="overaxes-above"/></g></g><g class="polarlayer"/><g class="smithlayer"/><g class="ternarylayer"/><g class="geolayer"/><g class="funnelarealayer"/><g class="pielayer"/><g class="iciclelayer"/><g class="treemaplayer"/><g class="sunburstlayer"/><g class="glimages"/><defs id="topdefs-d247c3"><g class="clips"/></defs><g class="layer-above"><g class="imagelayer"/><g class="shapelayer"><g class="shape-group" data-index="0" clip-path="url(#clipd247c3x)"><path data-index="0" fill-rule="evenodd" d="M665.14,551L665.14,34" style="opacity: 1; stroke: rgb(75, 85, 99); stroke-opacity: 0.76; fill: rgb(0, 0, 0); fill-opacity: 0; stroke-dasharray: 9px, 9px; stroke-width: 1.1px;"/></g></g></g><g class="infolayer"><g class="g-gtitle"/><g class="g-xtitle"><text class="xtitle" x="489" y="592.6248046875" text-anchor="middle" style="opacity: 1; font-family: -apple-system, BlinkMacSystemFont, 'Segoe UI', 'PingFang SC', Arial, sans-serif; font-size: 13px; fill: rgb(17, 24, 39); fill-opacity: 1; white-space: pre;">Wavelength (nm)</text></g><g class="g-ytitle"><text class="ytitle" transform="rotate(-90,40.97207031250001,292.5)" x="40.97207031250001" y="292.5" text-anchor="middle" style="opacity: 1; font-family: -apple-system, BlinkMacSystemFont, 'Segoe UI', 'PingFang SC', Arial, sans-serif; font-size: 13px; fill: rgb(17, 24, 39); fill-opacity: 1; white-space: pre;">Intensity (a.u.)</text></g><g class="annotation" data-index="0" style="opacity: 1;"><g class="annotation-text-g" transform="rotate(0,702.64,57.34000000000001)"><g class="cursor-pointer" transform="translate(665,44)"><rect class="bg" x="0.4" y="0.4" width="74.2" height="25.2" style="stroke-width: 0.8px; stroke: rgb(17, 24, 39); stroke-opacity: 0.22; fill: rgb(250, 250, 247); fill-opacity: 0.95;"/><text class="annotation-text" text-anchor="middle" x="37.01875" y="16.8" style="font-family: -apple-system, BlinkMacSystemFont, 'Segoe UI', 'PingFang SC', Arial, sans-serif; font-size: 10px; fill: rgb(75, 85, 99); fill-opacity: 1; white-space: pre;">Emission peak</text></g></g></g></g></svg>