<svg class="main-svg" xmlns="http://www.w3.org/2000/svg" xmlns:xlink="http://www.w3.org/1999/xlink" width="936" height="615" style="" viewBox="0 0 936 615"><rect x="0" y="0" width="936" height="615" style="fill: rgb(250, 250, 247); fill-opacity: 1;"/><defs id="defs-17bb72"><g class="clips"><clipPath id="clip17bb72xyplot" class="plotclip"><rect width="672" height="517"/></clipPath><clipPath class="axesclip" id="clip17bb72x"><rect x="78" y="0" width="672" height="615"/></clipPath><clipPath class="axesclip" id="clip17bb72y"><rect x="0" y="34" width="936" height="517"/></clipPath><clipPath class="axesclip" id="clip17bb72xy"><rect x="78" y="34" width="672" height="517"/></clipPath></g><g class="gradients"/><g class="patterns"/></defs><g class="bglayer"/><g class="layer-below"><g class="imagelayer"/><g class="shapelayer"/></g><g class="cartesianlayer"><g class="subplot xy"><g class="layer-subplot"><g class="shapelayer"/><g class="imagelayer"/></g><g class="minor-gridlayer"><g class="x"/><g class="y"/></g><g class="gridlayer"><g class="x"/><g class="y"/></g><g class="zerolinelayer"/><g class="layer-between"><g class="shapelayer"/><g class="imagelayer"/></g><path class="xlines-below"/><path class="ylines-below"/><g class="overlines-below"/><g class="xaxislayer-below"/><g class="yaxislayer-below"/><g class="overaxes-below"/><g class="overplot"><g class="xy" transform="translate(78,34)" clip-path="url(#clip17bb72xyplot)"><g class="scatterlayer mlayer"><g class="trace scatter trace89aafc" style="stroke-miterlimit: 2; opacity: 1;"><g class="fills"/><g class="errorbars"/><g class="lines"><path class="js-line" d="M0,24.62L37.33,51L74.67,75.65L112,98.7L149.33,120.24L186.67,140.37L224,159.19L261.33,176.77L298.67,193.21L336,208.58L373.33,222.94L410.67,236.36L448,248.9L522.67,271.59L560,281.83L634.67,300.36L672,308.72L784,330.67L821.33,337.05L896,348.6" style="vector-effect: none; fill: none; stroke: rgb(75, 85, 99); stroke-opacity: 1; stroke-width: 1.8px; opacity: 1;"/></g><g class="points"><path class="point" transform="translate(0,24.62)" d="M3.6,0A3.6,3.6 0 1,1 0,-3.6A3.6,3.6 0 0,1 3.6,0Z" style="opacity: 1; stroke-width: 1px; fill: rgb(75, 85, 99); fill-opacity: 1; stroke: rgb(252, 252, 249); stroke-opacity: 1;"/><path class="point" transform="translate(37.33,51)" d="M3.6,0A3.6,3.6 0 1,1 0,-3.6A3.6,3.6 0 0,1 3.6,0Z" style="opacity: 1; stroke-width: 1px; fill: rgb(75, 85, 99); fill-opacity: 1; stroke: rgb(252, 252, 249); stroke-opacity: 1;"/><path class="point" transform="translate(74.67,75.65)" d="M3.6,0A3.6,3.6 0 1,1 0,-3.6A3.6,3.6 0 0,1 3.6,0Z" style="opacity: 1; stroke-width: 1px; fill: rgb(75, 85, 99); fill-opacity: 1; stroke: rgb(252, 252, 249); stroke-opacity: 1;"/><path class="point" transform="translate(112,98.7)" d="M3.6,0A3.6,3.6 0 1,1 0,-3.6A3.6,3.6 0 0,1 3.6,0Z" style="opacity: 1; stroke-width: 1px; fill: rgb(75, 85, 99); fill-opacity: 1; stroke: rgb(252, 252, 249); stroke-opacity: 1;"/><path class="point" transform="translate(149.33,120.24)" d="M3.6,0A3.6,3.6 0 1,1 0,-3.6A3.6,3.6 0 0,1 3.6,0Z" style="opacity: 1; stroke-width: 1px; fill: rgb(75, 85, 99); fill-opacity: 1; stroke: rgb(252, 252, 249); stroke-opacity: 1;"/><path class="point" transform="translate(186.67,140.37)" d="M3.6,0A3.6,3.6 0 1,1 0,-3.6A3.6,3.6 0 0,1 3.6,0Z" style="opacity: 1; stroke-width: 1px; fill: rgb(75, 85, 99); fill-opacity: 1; stroke: rgb(252, 252, 249); stroke-opacity: 1;"/><path class="point" transform="translate(224,159.19)" d="M3.6,0A3.6,3.6 0 1,1 0,-3.6A3.6,3.6 0 0,1 3.6,0Z" style="opacity: 1; stroke-width: 1px; fill: rgb(75, 85, 99); fill-opacity: 1; stroke: rgb(252, 252, 249); stroke-opacity: 1;"/><path class="point" transform="translate(261.33,176.77)" d="M3.6,0A3.6,3.6 0 1,1 0,-3.6A3.6,3.6 0 0,1 3.6,0Z" style="opacity: 1; stroke-width: 1px; fill: rgb(75, 85, 99); fill-opacity: 1; stroke: rgb(252, 252, 249); stroke-opacity: 1;"/><path class="point" transform="translate(298.67,193.21)" d="M3.6,0A3.6,3.6 0 1,1 0,-3.6A3.6,3.6 0 0,1 3.6,0Z" style="opacity: 1; stroke-width: 1px; fill: rgb(75, 85, 99); fill-opacity: 1; stroke: rgb(252, 252, 249); stroke-opacity: 1;"/><path class="point" transform="translate(336,208.58)" d="M3.6,0A3.6,3.6 0 1,1 0,-3.6A3.6,3.6 0 0,1 3.6,0Z" style="opacity: 1; stroke-width: 1px; fill: rgb(75, 85, 99); fill-opacity: 1; stroke: rgb(252, 252, 249); stroke-opacity: 1;"/><path class="point" transform="translate(373.33,222.94)" d="M3.6,0A3.6,3.6 0 1,1 0,-3.6A3.6,3.6 0 0,1 3.6,0Z" style="opacity: 1; stroke-width: 1px; fill: rgb(75, 85, 99); fill-opacity: 1; stroke: rgb(252, 252, 249); stroke-opacity: 1;"/><path class="point" transform="translate(410.67,236.36)" d="M3.6,0A3.6,3.6 0 1,1 0,-3.6A3.6,3.6 0 0,1 3.6,0Z" style="opacity: 1; stroke-width: 1px; fill: rgb(75, 85, 99); fill-opacity: 1; stroke: rgb(252, 252, 249); stroke-opacity: 1;"/><path class="point" transform="translate(448,248.9)" d="M3.6,0A3.6,3.6 0 1,1 0,-3.6A3.6,3.6 0 0,1 3.6,0Z" style="opacity: 1; stroke-width: 1px; fill: rgb(75, 85, 99); fill-opacity: 1; stroke: rgb(252, 252, 249); stroke-opacity: 1;"/><path class="point" transform="translate(485.33,260.63)" d="M3.6,0A3.6,3.6 0 1,1 0,-3.6A3.6,3.6 0 0,1 3.6,0Z" style="opacity: 1; stroke-width: 1px; fill: rgb(75, 85, 99); fill-opacity: 1; stroke: rgb(252, 252, 249); stroke-opacity: 1;"/><path class="point" transform="translate(522.67,271.59)" d="M3.6,0A3.6,3.6 0 1,1 0,-3.6A3.6,3.6 0 0,1 3.6,0Z" style="opacity: 1; stroke-width: 1px; fill: rgb(75, 85, 99); fill-opacity: 1; stroke: rgb(252, 252, 249); stroke-opacity: 1;"/><path class="point" transform="translate(560,281.83)" d="M3.6,0A3.6,3.6 0 1,1 0,-3.6A3.6,3.6 0 0,1 3.6,0Z" style="opacity: 1; stroke-width: 1px; fill: rgb(75, 85, 99); fill-opacity: 1; stroke: rgb(252, 252, 249); stroke-opacity: 1;"/><path class="point" transform="translate(597.33,291.41)" d="M3.6,0A3.6,3.6 0 1,1 0,-3.6A3.6,3.6 0 0,1 3.6,0Z" style="opacity: 1; stroke-width: 1px; fill: rgb(75, 85, 99); fill-opacity: 1; stroke: rgb(252, 252, 249); stroke-opacity: 1;"/><path class="point" transform="translate(634.67,300.36)" d="M3.6,0A3.6,3.6 0 1,1 0,-3.6A3.6,3.6 0 0,1 3.6,0Z" style="opacity: 1; stroke-width: 1px; fill: rgb(75, 85, 99); fill-opacity: 1; stroke: rgb(252, 252, 249); stroke-opacity: 1;"/><path class="point" transform="translate(672,308.72)" d="M3.6,0A3.6,3.6 0 1,1 0,-3.6A3.6,3.6 0 0,1 3.6,0Z" style="opacity: 1; stroke-width: 1px; fill: rgb(75, 85, 99); fill-opacity: 1; stroke: rgb(252, 252, 249); stroke-opacity: 1;"/><path class="point" transform="translate(709.33,316.54)" d="M3.6,0A3.6,3.6 0 1,1 0,-3.6A3.6,3.6 0 0,1 3.6,0Z" style="opacity: 1; stroke-width: 1px; fill: rgb(75, 85, 99); fill-opacity: 1; stroke: rgb(252, 252, 249); stroke-opacity: 1;"/><path class="point" transform="translate(746.67,323.84)" d="M3.6,0A3.6,3.6 0 1,1 0,-3.6A3.6,3.6 0 0,1 3.6,0Z" style="opacity: 1; stroke-width: 1px; fill: rgb(75, 85, 99); fill-opacity: 1; stroke: rgb(252, 252, 249); stroke-opacity: 1;"/><path class="point" transform="translate(784,330.67)" d="M3.6,0A3.6,3.6 0 1,1 0,-3.6A3.6,3.6 0 0,1 3.6,0Z" style="opacity: 1; stroke-width: 1px; fill: rgb(75, 85, 99); fill-opacity: 1; stroke: rgb(252, 252, 249); stroke-opacity: 1;"/><path class="point" transform="translate(821.33,337.05)" d="M3.6,0A3.6,3.6 0 1,1 0,-3.6A3.6,3.6 0 0,1 3.6,0Z" style="opacity: 1; stroke-width: 1px; fill: rgb(75, 85, 99); fill-opacity: 1; stroke: rgb(252, 252, 249); stroke-opacity: 1;"/><path class="point" transform="translate(858.67,343.02)" d="M3.6,0A3.6,3.6 0 1,1 0,-3.6A3.6,3.6 0 0,1 3.6,0Z" style="opacity: 1; stroke-width: 1px; fill: rgb(75, 85, 99); fill-opacity: 1; stroke: rgb(252, 252, 249); stroke-opacity: 1;"/><path class="point" transform="translate(896,348.6)" d="M3.6,0A3.6,3.6 0 1,1 0,-3.6A3.6,3.6 0 0,1 3.6,0Z" style="opacity: 1; stroke-width: 1px; fill: rgb(75, 85, 99); fill-opacity: 1; stroke: rgb(252, 252, 249); stroke-opacity: 1;"/></g><g class="text"/></g><g class="trace scatter trace8bc6e8" style="stroke-miterlimit: 2; opacity: 1;"><g class="fills"/><g class="errorbars"/><g class="lines"><path class="js-line" d="M0,24.62L37.33,70.18L74.67,110.96L112,147.44L149.33,180.09L186.67,209.31L224,235.45L261.33,258.85L298.67,279.78L336,298.52L373.33,315.28L410.67,330.27L448,343.7L485.33,355.71L522.67,366.46L560,376.08L597.33,384.68L634.67,392.38L672,399.27L784,415.89L821.33,420.32L896,427.81" style="vector-effect: none; fill: none; stroke: rgb(0, 114, 178); stroke-opacity: 1; stroke-width: 2px; opacity: 1;"/></g><g class="points"><path class="point" transform="translate(0,24.62)" d="M3.6,0A3.6,3.6 0 1,1 0,-3.6A3.6,3.6 0 0,1 3.6,0Z" style="opacity: 1; stroke-width: 1px; fill: rgb(0, 114, 178); fill-opacity: 1; stroke: rgb(252, 252, 249); stroke-opacity: 1;"/><path class="point" transform="translate(37.33,70.18)" d="M3.6,0A3.6,3.6 0 1,1 0,-3.6A3.6,3.6 0 0,1 3.6,0Z" style="opacity: 1; stroke-width: 1px; fill: rgb(0, 114, 178); fill-opacity: 1; stroke: rgb(252, 252, 249); stroke-opacity: 1;"/><path class="point" transform="translate(74.67,110.96)" d="M3.6,0A3.6,3.6 0 1,1 0,-3.6A3.6,3.6 0 0,1 3.6,0Z" style="opacity: 1; stroke-width: 1px; fill: rgb(0, 114, 178); fill-opacity: 1; stroke: rgb(252, 252, 249); stroke-opacity: 1;"/><path class="point" transform="translate(112,147.44)" d="M3.6,0A3.6,3.6 0 1,1 0,-3.6A3.6,3.6 0 0,1 3.6,0Z" style="opacity: 1; stroke-width: 1px; fill: rgb(0, 114, 178); fill-opacity: 1; stroke: rgb(252, 252, 249); stroke-opacity: 1;"/><path class="point" transform="translate(149.33,180.09)" d="M3.6,0A3.6,3.6 0 1,1 0,-3.6A3.6,3.6 0 0,1 3.6,0Z" style="opacity: 1; stroke-width: 1px; fill: rgb(0, 114, 178); fill-opacity: 1; stroke: rgb(252, 252, 249); stroke-opacity: 1;"/><path class="point" transform="translate(186.67,209.31)" d="M3.6,0A3.6,3.6 0 1,1 0,-3.6A3.6,3.6 0 0,1 3.6,0Z" style="opacity: 1; stroke-width: 1px; fill: rgb(0, 114, 178); fill-opacity: 1; stroke: rgb(252, 252, 249); stroke-opacity: 1;"/><path class="point" transform="translate(224,235.45)" d="M3.6,0A3.6,3.6 0 1,1 0,-3.6A3.6,3.6 0 0,1 3.6,0Z" style="opacity: 1; stroke-width: 1px; fill: rgb(0, 114, 178); fill-opacity: 1; stroke: rgb(252, 252, 249); stroke-opacity: 1;"/><path class="point" transform="translate(261.33,258.85)" d="M3.6,0A3.6,3.6 0 1,1 0,-3.6A3.6,3.6 0 0,1 3.6,0Z" style="opacity: 1; stroke-width: 1px; fill: rgb(0, 114, 178); fill-opacity: 1; stroke: rgb(252, 252, 249); stroke-opacity: 1;"/><path class="point" transform="translate(298.67,279.78)" d="M3.6,0A3.6,3.6 0 1,1 0,-3.6A3.6,3.6 0 0,1 3.6,0Z" style="opacity: 1; stroke-width: 1px; fill: rgb(0, 114, 178); fill-opacity: 1; stroke: rgb(252, 252, 249); stroke-opacity: 1;"/><path class="point" transform="translate(336,298.52)" d="M3.6,0A3.6,3.6 0 1,1 0,-3.6A3.6,3.6 0 0,1 3.6,0Z" style="opacity: 1; stroke-width: 1px; fill: rgb(0, 114, 178); fill-opacity: 1; stroke: rgb(252, 252, 249); stroke-opacity: 1;"/><path class="point" transform="translate(373.33,315.28)" d="M3.6,0A3.6,3.6 0 1,1 0,-3.6A3.6,3.6 0 0,1 3.6,0Z" style="opacity: 1; stroke-width: 1px; fill: rgb(0, 114, 178); fill-opacity: 1; stroke: rgb(252, 252, 249); stroke-opacity: 1;"/><path class="point" transform="translate(410.67,330.27)" d="M3.6,0A3.6,3.6 0 1,1 0,-3.6A3.6,3.6 0 0,1 3.6,0Z" style="opacity: 1; stroke-width: 1px; fill: rgb(0, 114, 178); fill-opacity: 1; stroke: rgb(252, 252, 249); stroke-opacity: 1;"/><path class="point" transform="translate(448,343.7)" d="M3.6,0A3.6,3.6 0 1,1 0,-3.6A3.6,3.6 0 0,1 3.6,0Z" style="opacity: 1; stroke-width: 1px; fill: rgb(0, 114, 178); fill-opacity: 1; stroke: rgb(252, 252, 249); stroke-opacity: 1;"/><path class="point" transform="translate(485.33,355.71)" d="M3.6,0A3.6,3.6 0 1,1 0,-3.6A3.6,3.6 0 0,1 3.6,0Z" style="opacity: 1; stroke-width: 1px; fill: rgb(0, 114, 178); fill-opacity: 1; stroke: rgb(252, 252, 249); stroke-opacity: 1;"/><path class="point" transform="translate(522.67,366.46)" d="M3.6,0A3.6,3.6 0 1,1 0,-3.6A3.6,3.6 0 0,1 3.6,0Z" style="opacity: 1; stroke-width: 1px; fill: rgb(0, 114, 178); fill-opacity: 1; stroke: rgb(252, 252, 249); stroke-opacity: 1;"/><path class="point" transform="translate(560,376.08)" d="M3.6,0A3.6,3.6 0 1,1 0,-3.6A3.6,3.6 0 0,1 3.6,0Z" style="opacity: 1; stroke-width: 1px; fill: rgb(0, 114, 178); fill-opacity: 1; stroke: rgb(252, 252, 249); stroke-opacity: 1;"/><path class="point" transform="translate(597.33,384.68)" d="M3.6,0A3.6,3.6 0 1,1 0,-3.6A3.6,3.6 0 0,1 3.6,0Z" style="opacity: 1; stroke-width: 1px; fill: rgb(0, 114, 178); fill-opacity: 1; stroke: rgb(252, 252, 249); stroke-opacity: 1;"/><path class="point" transform="translate(634.67,392.38)" d="M3.6,0A3.6,3.6 0 1,1 0,-3.6A3.6,3.6 0 0,1 3.6,0Z" style="opacity: 1; stroke-width: 1px; fill: rgb(0, 114, 178); fill-opacity: 1; stroke: rgb(252, 252, 249); stroke-opacity: 1;"/><path class="point" transform="translate(672,399.27)" d="M3.6,0A3.6,3.6 0 1,1 0,-3.6A3.6,3.6 0 0,1 3.6,0Z" style="opacity: 1; stroke-width: 1px; fill: rgb(0, 114, 178); fill-opacity: 1; stroke: rgb(252, 252, 249); stroke-opacity: 1;"/><path class="point" transform="translate(709.33,405.44)" d="M3.6,0A3.6,3.6 0 1,1 0,-3.6A3.6,3.6 0 0,1 3.6,0Z" style="opacity: 1; stroke-width: 1px; fill: rgb(0, 114, 178); fill-opacity: 1; stroke: rgb(252, 252, 249); stroke-opacity: 1;"/><path class="point" transform="translate(746.67,410.96)" d="M3.6,0A3.6,3.6 0 1,1 0,-3.6A3.6,3.6 0 0,1 3.6,0Z" style="opacity: 1; stroke-width: 1px; fill: rgb(0, 114, 178); fill-opacity: 1; stroke: rgb(252, 252, 249); stroke-opacity: 1;"/><path class="point" transform="translate(784,415.89)" d="M3.6,0A3.6,3.6 0 1,1 0,-3.6A3.6,3.6 0 0,1 3.6,0Z" style="opacity: 1; stroke-width: 1px; fill: rgb(0, 114, 178); fill-opacity: 1; stroke: rgb(252, 252, 249); stroke-opacity: 1;"/><path class="point" transform="translate(821.33,420.32)" d="M3.6,0A3.6,3.6 0 1,1 0,-3.6A3.6,3.6 0 0,1 3.6,0Z" style="opacity: 1; stroke-width: 1px; fill: rgb(0, 114, 178); fill-opacity: 1; stroke: rgb(252, 252, 249); stroke-opacity: 1;"/><path class="point" transform="translate(858.67,424.27)" d="M3.6,0A3.6,3.6 0 1,1 0,-3.6A3.6,3.6 0 0,1 3.6,0Z" style="opacity: 1; stroke-width: 1px; fill: rgb(0, 114, 178); fill-opacity: 1; stroke: rgb(252, 252, 249); stroke-opacity: 1;"/><path class="point" transform="translate(896,427.81)" d="M3.6,0A3.6,3.6 0 1,1 0,-3.6A3.6,3.6 0 0,1 3.6,0Z" style="opacity: 1; stroke-width: 1px; fill: rgb(0, 114, 178); fill-opacity: 1; stroke: rgb(252, 252, 249); stroke-opacity: 1;"/></g><g class="text"/></g><g class="trace scatter trace6042e2" style="stroke-miterlimit: 2; opacity: 1;"><g class="fills"/><g class="errorbars"/><g class="lines"><path class="js-line" d="M0,24.62L37.33,102.03L74.67,166.35L112,219.8L149.33,264.22L186.67,301.13L224,331.79L261.33,357.27L298.67,378.45L336,396.05L373.33,410.67L410.67,422.81L448,432.91L485.33,441.3L522.67,448.27L560,454.06L597.33,458.87L672,466.2L709.33,468.96L896,477.16" style="vector-effect: none; fill: none; stroke: rgb(213, 94, 0); stroke-opacity: 1; stroke-dasharray: 9px, 9px; stroke-width: 2.1px; opacity: 1;"/></g><g class="points"><path class="point" transform="translate(0,24.62)" d="M3.6,0A3.6,3.6 0 1,1 0,-3.6A3.6,3.6 0 0,1 3.6,0Z" style="opacity: 1; stroke-width: 1px; fill: rgb(213, 94, 0); fill-opacity: 1; stroke: rgb(252, 252, 249); stroke-opacity: 1;"/><path class="point" transform="translate(37.33,102.03)" d="M3.6,0A3.6,3.6 0 1,1 0,-3.6A3.6,3.6 0 0,1 3.6,0Z" style="opacity: 1; stroke-width: 1px; fill: rgb(213, 94, 0); fill-opacity: 1; stroke: rgb(252, 252, 249); stroke-opacity: 1;"/><path class="point" transform="translate(74.67,166.35)" d="M3.6,0A3.6,3.6 0 1,1 0,-3.6A3.6,3.6 0 0,1 3.6,0Z" style="opacity: 1; stroke-width: 1px; fill: rgb(213, 94, 0); fill-opacity: 1; stroke: rgb(252, 252, 249); stroke-opacity: 1;"/><path class="point" transform="translate(112,219.8)" d="M3.6,0A3.6,3.6 0 1,1 0,-3.6A3.6,3.6 0 0,1 3.6,0Z" style="opacity: 1; stroke-width: 1px; fill: rgb(213, 94, 0); fill-opacity: 1; stroke: rgb(252, 252, 249); stroke-opacity: 1;"/><path class="point" transform="translate(149.33,264.22)" d="M3.6,0A3.6,3.6 0 1,1 0,-3.6A3.6,3.6 0 0,1 3.6,0Z" style="opacity: 1; stroke-width: 1px; fill: rgb(213, 94, 0); fill-opacity: 1; stroke: rgb(252, 252, 249); stroke-opacity: 1;"/><path class="point" transform="translate(186.67,301.13)" d="M3.6,0A3.6,3.6 0 1,1 0,-3.6A3.6,3.6 0 0,1 3.6,0Z" style="opacity: 1; stroke-width: 1px; fill: rgb(213, 94, 0); fill-opacity: 1; stroke: rgb(252, 252, 249); stroke-opacity: 1;"/><path class="point" transform="translate(224,331.79)" d="M3.6,0A3.6,3.6 0 1,1 0,-3.6A3.6,3.6 0 0,1 3.6,0Z" style="opacity: 1; stroke-width: 1px; fill: rgb(213, 94, 0); fill-opacity: 1; stroke: rgb(252, 252, 249); stroke-opacity: 1;"/><path class="point" transform="translate(261.33,357.27)" d="M3.6,0A3.6,3.6 0 1,1 0,-3.6A3.6,3.6 0 0,1 3.6,0Z" style="opacity: 1; stroke-width: 1px; fill: rgb(213, 94, 0); fill-opacity: 1; stroke: rgb(252, 252, 249); stroke-opacity: 1;"/><path class="point" transform="translate(298.67,378.45)" d="M3.6,0A3.6,3.6 0 1,1 0,-3.6A3.6,3.6 0 0,1 3.6,0Z" style="opacity: 1; stroke-width: 1px; fill: rgb(213, 94, 0); fill-opacity: 1; stroke: rgb(252, 252, 249); stroke-opacity: 1;"/><path class="point" transform="translate(336,396.05)" d="M3.6,0A3.6,3.6 0 1,1 0,-3.6A3.6,3.6 0 0,1 3.6,0Z" style="opacity: 1; stroke-width: 1px; fill: rgb(213, 94, 0); fill-opacity: 1; stroke: rgb(252, 252, 249); stroke-opacity: 1;"/><path class="point" transform="translate(373.33,410.67)" d="M3.6,0A3.6,3.6 0 1,1 0,-3.6A3.6,3.6 0 0,1 3.6,0Z" style="opacity: 1; stroke-width: 1px; fill: rgb(213, 94, 0); fill-opacity: 1; stroke: rgb(252, 252, 249); stroke-opacity: 1;"/><path class="point" transform="translate(410.67,422.81)" d="M3.6,0A3.6,3.6 0 1,1 0,-3.6A3.6,3.6 0 0,1 3.6,0Z" style="opacity: 1; stroke-width: 1px; fill: rgb(213, 94, 0); fill-opacity: 1; stroke: rgb(252, 252, 249); stroke-opacity: 1;"/><path class="point" transform="translate(448,432.91)" d="M3.6,0A3.6,3.6 0 1,1 0,-3.6A3.6,3.6 0 0,1 3.6,0Z" style="opacity: 1; stroke-width: 1px; fill: rgb(213, 94, 0); fill-opacity: 1; stroke: rgb(252, 252, 249); stroke-opacity: 1;"/><path class="point" transform="translate(485.33,441.3)" d="M3.6,0A3.6,3.6 0 1,1 0,-3.6A3.6,3.6 0 0,1 3.6,0Z" style="opacity: 1; stroke-width: 1px; fill: rgb(213, 94, 0); fill-opacity: 1; stroke: rgb(252, 252, 249); stroke-opacity: 1;"/><path class="point" transform="translate(522.67,448.27)" d="M3.6,0A3.6,3.6 0 1,1 0,-3.6A3.6,3.6 0 0,1 3.6,0Z" style="opacity: 1; stroke-width: 1px; fill: rgb(213, 94, 0); fill-opacity: 1; stroke: rgb(252, 252, 249); stroke-opacity: 1;"/><path class="point" transform="translate(560,454.06)" d="M3.6,0A3.6,3.6 0 1,1 0,-3.6A3.6,3.6 0 0,1 3.6,0Z" style="opacity: 1; stroke-width: 1px; fill: rgb(213, 94, 0); fill-opacity: 1; stroke: rgb(252, 252, 249); stroke-opacity: 1;"/><path class="point" transform="translate(597.33,458.87)" d="M3.6,0A3.6,3.6 0 1,1 0,-3.6A3.6,3.6 0 0,1 3.6,0Z" style="opacity: 1; stroke-width: 1px; fill: rgb(213, 94, 0); fill-opacity: 1; stroke: rgb(252, 252, 249); stroke-opacity: 1;"/><path class="point" transform="translate(634.67,462.87)" d="M3.6,0A3.6,3.6 0 1,1 0,-3.6A3.6,3.6 0 0,1 3.6,0Z" style="opacity: 1; stroke-width: 1px; fill: rgb(213, 94, 0); fill-opacity: 1; stroke: rgb(252, 252, 249); stroke-opacity: 1;"/><path class="point" transform="translate(672,466.2)" d="M3.6,0A3.6,3.6 0 1,1 0,-3.6A3.6,3.6 0 0,1 3.6,0Z" style="opacity: 1; stroke-width: 1px; fill: rgb(213, 94, 0); fill-opacity: 1; stroke: rgb(252, 252, 249); stroke-opacity: 1;"/><path class="point" transform="translate(709.33,468.96)" d="M3.6,0A3.6,3.6 0 1,1 0,-3.6A3.6,3.6 0 0,1 3.6,0Z" style="opacity: 1; stroke-width: 1px; fill: rgb(213, 94, 0); fill-opacity: 1; stroke: rgb(252, 252, 249); stroke-opacity: 1;"/><path class="point" transform="translate(746.67,471.25)" d="M3.6,0A3.6,3.6 0 1,1 0,-3.6A3.6,3.6 0 0,1 3.6,0Z" style="opacity: 1; stroke-width: 1px; fill: rgb(213, 94, 0); fill-opacity: 1; stroke: rgb(252, 252, 249); stroke-opacity: 1;"/><path class="point" transform="translate(784,473.16)" d="M3.6,0A3.6,3.6 0 1,1 0,-3.6A3.6,3.6 0 0,1 3.6,0Z" style="opacity: 1; stroke-width: 1px; fill: rgb(213, 94, 0); fill-opacity: 1; stroke: rgb(252, 252, 249); stroke-opacity: 1;"/><path class="point" transform="translate(821.33,474.74)" d="M3.6,0A3.6,3.6 0 1,1 0,-3.6A3.6,3.6 0 0,1 3.6,0Z" style="opacity: 1; stroke-width: 1px; fill: rgb(213, 94, 0); fill-opacity: 1; stroke: rgb(252, 252, 249); stroke-opacity: 1;"/><path class="point" transform="translate(858.67,476.06)" d="M3.6,0A3.6,3.6 0 1,1 0,-3.6A3.6,3.6 0 0,1 3.6,0Z" style="opacity: 1; stroke-width: 1px; fill: rgb(213, 94, 0); fill-opacity: 1; stroke: rgb(252, 252, 249); stroke-opacity: 1;"/><path class="point" transform="translate(896,477.16)" d="M3.6,0A3.6,3.6 0 1,1 0,-3.6A3.6,3.6 0 0,1 3.6,0Z" style="opacity: 1; stroke-width: 1px; fill: rgb(213, 94, 0); fill-opacity: 1; stroke: rgb(252, 252, 249); stroke-opacity: 1;"/></g><g class="text"/></g><g class="trace scatter tracef18364" style="stroke-miterlimit: 2; opacity: 1;"><g class="fills"/><g class="errorbars"/><g class="lines"><path class="js-line" d="M0,24.61H37.33V138.04H74.67V223.91H112V288.72H149.33V337.16H186.67V372.21H224V395.32H261.33V406.93H298.67V407.71H336V400.23H373.33V389.96H410.67V384.05H448V388.11H485.33V403.07H522.67V424.92H560V447.44H597.33V465.72H634.67V477.96H672V484.95H709.33V488.45H746.67V490.09H784V490.88H821.33V491.31H858.67V491.59H896V491.79" style="vector-effect: none; fill: none; stroke: rgb(0, 158, 115); stroke-opacity: 1; stroke-dasharray: 9px, 3px, 3px, 3px; stroke-width: 2.1px; opacity: 1;"/></g><g class="points"><path class="point" transform="translate(0,24.61)" d="M3.6,0A3.6,3.6 0 1,1 0,-3.6A3.6,3.6 0 0,1 3.6,0Z" style="opacity: 1; stroke-width: 1px; fill: rgb(0, 158, 115); fill-opacity: 1; stroke: rgb(252, 252, 249); stroke-opacity: 1;"/><path class="point" transform="translate(37.33,138.04)" d="M3.6,0A3.6,3.6 0 1,1 0,-3.6A3.6,3.6 0 0,1 3.6,0Z" style="opacity: 1; stroke-width: 1px; fill: rgb(0, 158, 115); fill-opacity: 1; stroke: rgb(252, 252, 249); stroke-opacity: 1;"/><path class="point" transform="translate(74.67,223.91)" d="M3.6,0A3.6,3.6 0 1,1 0,-3.6A3.6,3.6 0 0,1 3.6,0Z" style="opacity: 1; stroke-width: 1px; fill: rgb(0, 158, 115); fill-opacity: 1; stroke: rgb(252, 252, 249); stroke-opacity: 1;"/><path class="point" transform="translate(112,288.72)" d="M3.6,0A3.6,3.6 0 1,1 0,-3.6A3.6,3.6 0 0,1 3.6,0Z" style="opacity: 1; stroke-width: 1px; fill: rgb(0, 158, 115); fill-opacity: 1; stroke: rgb(252, 252, 249); stroke-opacity: 1;"/><path class="point" transform="translate(149.33,337.16)" d="M3.6,0A3.6,3.6 0 1,1 0,-3.6A3.6,3.6 0 0,1 3.6,0Z" style="opacity: 1; stroke-width: 1px; fill: rgb(0, 158, 115); fill-opacity: 1; stroke: rgb(252, 252, 249); stroke-opacity: 1;"/><path class="point" transform="translate(186.67,372.21)" d="M3.6,0A3.6,3.6 0 1,1 0,-3.6A3.6,3.6 0 0,1 3.6,0Z" style="opacity: 1; stroke-width: 1px; fill: rgb(0, 158, 115); fill-opacity: 1; stroke: rgb(252, 252, 249); stroke-opacity: 1;"/><path class="point" transform="translate(224,395.32)" d="M3.6,0A3.6,3.6 0 1,1 0,-3.6A3.6,3.6 0 0,1 3.6,0Z" style="opacity: 1; stroke-width: 1px; fill: rgb(0, 158, 115); fill-opacity: 1; stroke: rgb(252, 252, 249); stroke-opacity: 1;"/><path class="point" transform="translate(261.33,406.93)" d="M3.6,0A3.6,3.6 0 1,1 0,-3.6A3.6,3.6 0 0,1 3.6,0Z" style="opacity: 1; stroke-width: 1px; fill: rgb(0, 158, 115); fill-opacity: 1; stroke: rgb(252, 252, 249); stroke-opacity: 1;"/><path class="point" transform="translate(298.67,407.71)" d="M3.6,0A3.6,3.6 0 1,1 0,-3.6A3.6,3.6 0 0,1 3.6,0Z" style="opacity: 1; stroke-width: 1px; fill: rgb(0, 158, 115); fill-opacity: 1; stroke: rgb(252, 252, 249); stroke-opacity: 1;"/><path class="point" transform="translate(336,400.23)" d="M3.6,0A3.6,3.6 0 1,1 0,-3.6A3.6,3.6 0 0,1 3.6,0Z" style="opacity: 1; stroke-width: 1px; fill: rgb(0, 158, 115); fill-opacity: 1; stroke: rgb(252, 252, 249); stroke-opacity: 1;"/><path class="point" transform="translate(373.33,389.96)" d="M3.6,0A3.6,3.6 0 1,1 0,-3.6A3.6,3.6 0 0,1 3.6,0Z" style="opacity: 1; stroke-width: 1px; fill: rgb(0, 158, 115); fill-opacity: 1; stroke: rgb(252, 252, 249); stroke-opacity: 1;"/><path class="point" transform="translate(410.67,384.05)" d="M3.6,0A3.6,3.6 0 1,1 0,-3.6A3.6,3.6 0 0,1 3.6,0Z" style="opacity: 1; stroke-width: 1px; fill: rgb(0, 158, 115); fill-opacity: 1; stroke: rgb(252, 252, 249); stroke-opacity: 1;"/><path class="point" transform="translate(448,388.11)" d="M3.6,0A3.6,3.6 0 1,1 0,-3.6A3.6,3.6 0 0,1 3.6,0Z" style="opacity: 1; stroke-width: 1px; fill: rgb(0, 158, 115); fill-opacity: 1; stroke: rgb(252, 252, 249); stroke-opacity: 1;"/><path class="point" transform="translate(485.33,403.07)" d="M3.6,0A3.6,3.6 0 1,1 0,-3.6A3.6,3.6 0 0,1 3.6,0Z" style="opacity: 1; stroke-width: 1px; fill: rgb(0, 158, 115); fill-opacity: 1; stroke: rgb(252, 252, 249); stroke-opacity: 1;"/><path class="point" transform="translate(522.67,424.92)" d="M3.6,0A3.6,3.6 0 1,1 0,-3.6A3.6,3.6 0 0,1 3.6,0Z" style="opacity: 1; stroke-width: 1px; fill: rgb(0, 158, 115); fill-opacity: 1; stroke: rgb(252, 252, 249); stroke-opacity: 1;"/><path class="point" transform="translate(560,447.44)" d="M3.6,0A3.6,3.6 0 1,1 0,-3.6A3.6,3.6 0 0,1 3.6,0Z" style="opacity: 1; stroke-width: 1px; fill: rgb(0, 158, 115); fill-opacity: 1; stroke: rgb(252, 252, 249); stroke-opacity: 1;"/><path class="point" transform="translate(597.33,465.72)" d="M3.6,0A3.6,3.6 0 1,1 0,-3.6A3.6,3.6 0 0,1 3.6,0Z" style="opacity: 1; stroke-width: 1px; fill: rgb(0, 158, 115); fill-opacity: 1; stroke: rgb(252, 252, 249); stroke-opacity: 1;"/><path class="point" transform="translate(634.67,477.96)" d="M3.6,0A3.6,3.6 0 1,1 0,-3.6A3.6,3.6 0 0,1 3.6,0Z" style="opacity: 1; stroke-width: 1px; fill: rgb(0, 158, 115); fill-opacity: 1; stroke: rgb(252, 252, 249); stroke-opacity: 1;"/><path class="point" transform="translate(672,484.95)" d="M3.6,0A3.6,3.6 0 1,1 0,-3.6A3.6,3.6 0 0,1 3.6,0Z" style="opacity: 1; stroke-width: 1px; fill: rgb(0, 158, 115); fill-opacity: 1; stroke: rgb(252, 252, 249); stroke-opacity: 1;"/><path class="point" transform="translate(709.33,488.45)" d="M3.6,0A3.6,3.6 0 1,1 0,-3.6A3.6,3.6 0 0,1 3.6,0Z" style="opacity: 1; stroke-width: 1px; fill: rgb(0, 158, 115); fill-opacity: 1; stroke: rgb(252, 252, 249); stroke-opacity: 1;"/><path class="point" transform="translate(746.67,490.09)" d="M3.6,0A3.6,3.6 0 1,1 0,-3.6A3.6,3.6 0 0,1 3.6,0Z" style="opacity: 1; stroke-width: 1px; fill: rgb(0, 158, 115); fill-opacity: 1; stroke: rgb(252, 252, 249); stroke-opacity: 1;"/><path class="point" transform="translate(784,490.88)" d="M3.6,0A3.6,3.6 0 1,1 0,-3.6A3.6,3.6 0 0,1 3.6,0Z" style="opacity: 1; stroke-width: 1px; fill: rgb(0, 158, 115); fill-opacity: 1; stroke: rgb(252, 252, 249); stroke-opacity: 1;"/><path class="point" transform="translate(821.33,491.31)" d="M3.6,0A3.6,3.6 0 1,1 0,-3.6A3.6,3.6 0 0,1 3.6,0Z" style="opacity: 1; stroke-width: 1px; fill: rgb(0, 158, 115); fill-opacity: 1; stroke: rgb(252, 252, 249); stroke-opacity: 1;"/><path class="point" transform="translate(858.67,491.59)" d="M3.6,0A3.6,3.6 0 1,1 0,-3.6A3.6,3.6 0 0,1 3.6,0Z" style="opacity: 1; stroke-width: 1px; fill: rgb(0, 158, 115); fill-opacity: 1; stroke: rgb(252, 252, 249); stroke-opacity: 1;"/><path class="point" transform="translate(896,491.79)" d="M3.6,0A3.6,3.6 0 1,1 0,-3.6A3.6,3.6 0 0,1 3.6,0Z" style="opacity: 1; stroke-width: 1px; fill: rgb(0, 158, 115); fill-opacity: 1; stroke: rgb(252, 252, 249); stroke-opacity: 1;"/></g><g class="text"/></g></g></g></g><g class="zerolinelayer-above"/><path class="xlines-above crisp" d="M76.95,551.525H751.05M76.95,33.475H751.05" style="fill: none; stroke-width: 1.05px; stroke: rgb(17, 24, 39); stroke-opacity: 1;"/><path class="ylines-above crisp" d="M77.475,34V551M750.525,34V551" style="fill: none; stroke-width: 1.05px; stroke: rgb(17, 24, 39); stroke-opacity: 1;"/><g class="overlines-above"/><g class="xaxislayer-above"><path class="xtick ticks crisp" d="M0,552.05v5" transform="translate(78,0)" style="stroke: rgb(68, 68, 68); stroke-opacity: 1; stroke-width: 1px;"/><path class="xtick ticks crisp" d="M0,552.05v5" transform="translate(152.67000000000002,0)" style="stroke: rgb(68, 68, 68); stroke-opacity: 1; stroke-width: 1px;"/><path class="xtick ticks crisp" d="M0,552.05v5" transform="translate(227.33,0)" style="stroke: rgb(68, 68, 68); stroke-opacity: 1; stroke-width: 1px;"/><path class="xtick ticks crisp" d="M0,552.05v5" transform="translate(302,0)" style="stroke: rgb(68, 68, 68); stroke-opacity: 1; stroke-width: 1px;"/><path class="xtick ticks crisp" d="M0,552.05v5" transform="translate(376.67,0)" style="stroke: rgb(68, 68, 68); stroke-opacity: 1; stroke-width: 1px;"/><path class="xtick ticks crisp" d="M0,552.05v5" transform="translate(451.33,0)" style="stroke: rgb(68, 68, 68); stroke-opacity: 1; stroke-width: 1px;"/><path class="xtick ticks crisp" d="M0,552.05v5" transform="translate(526,0)" style="stroke: rgb(68, 68, 68); stroke-opacity: 1; stroke-width: 1px;"/><path class="xtick ticks crisp" d="M0,552.05v5" transform="translate(600.67,0)" style="stroke: rgb(68, 68, 68); stroke-opacity: 1; stroke-width: 1px;"/><path class="xtick ticks crisp" d="M0,552.05v5" transform="translate(675.33,0)" style="stroke: rgb(68, 68, 68); stroke-opacity: 1; stroke-width: 1px;"/><path class="xtick ticks crisp" d="M0,552.05v5" transform="translate(750,0)" style="stroke: rgb(68, 68, 68); stroke-opacity: 1; stroke-width: 1px;"/><g class="xtick"><text text-anchor="middle" x="0" y="569.05" transform="translate(78,0)" style="font-family: -apple-system, BlinkMacSystemFont, 'Segoe UI', 'PingFang SC', Arial, sans-serif; font-size: 10px; fill: rgb(17, 24, 39); fill-opacity: 1; white-space: pre;">0</text></g><g class="xtick"><text text-anchor="middle" x="0" y="569.05" style="font-family: -apple-system, BlinkMacSystemFont, 'Segoe UI', 'PingFang SC', Arial, sans-serif; font-size: 10px; fill: rgb(17, 24, 39); fill-opacity: 1; white-space: pre;" transform="translate(152.67000000000002,0)">10</text></g><g class="xtick"><text text-anchor="middle" x="0" y="569.05" style="font-family: -apple-system, BlinkMacSystemFont, 'Segoe UI', 'PingFang SC', Arial, sans-serif; font-size: 10px; fill: rgb(17, 24, 39); fill-opacity: 1; white-space: pre;" transform="translate(227.33,0)">20</text></g><g class="xtick"><text text-anchor="middle" x="0" y="569.05" style="font-family: -apple-system, BlinkMacSystemFont, 'Segoe UI', 'PingFang SC', Arial, sans-serif; font-size: 10px; fill: rgb(17, 24, 39); fill-opacity: 1; white-space: pre;" transform="translate(302,0)">30</text></g><g class="xtick"><text text-anchor="middle" x="0" y="569.05" style="font-family: -apple-system, BlinkMacSystemFont, 'Segoe UI', 'PingFang SC', Arial, sans-serif; font-size: 10px; fill: rgb(17, 24, 39); fill-opacity: 1; white-space: pre;" transform="translate(376.67,0)">40</text></g><g class="xtick"><text text-anchor="middle" x="0" y="569.05" style="font-family: -apple-system, BlinkMacSystemFont, 'Segoe UI', 'PingFang SC', Arial, sans-serif; font-size: 10px; fill: rgb(17, 24, 39); fill-opacity: 1; white-space: pre;" transform="translate(451.33,0)">50</text></g><g class="xtick"><text text-anchor="middle" x="0" y="569.05" style="font-family: -apple-system, BlinkMacSystemFont, 'Segoe UI', 'PingFang SC', Arial, sans-serif; font-size: 10px; fill: rgb(17, 24, 39); fill-opacity: 1; white-space: pre;" transform="translate(526,0)">60</text></g><g class="xtick"><text text-anchor="middle" x="0" y="569.05" style="font-family: -apple-system, BlinkMacSystemFont, 'Segoe UI', 'PingFang SC', Arial, sans-serif; font-size: 10px; fill: rgb(17, 24, 39); fill-opacity: 1; white-space: pre;" transform="translate(600.67,0)">70</text></g><g class="xtick"><text text-anchor="middle" x="0" y="569.05" style="font-family: -apple-system, BlinkMacSystemFont, 'Segoe UI', 'PingFang SC', Arial, sans-serif; font-size: 10px; fill: rgb(17, 24, 39); fill-opacity: 1; white-space: pre;" transform="translate(675.33,0)">80</text></g><g class="xtick"><text text-anchor="middle" x="0" y="569.05" style="font-family: -apple-system, BlinkMacSystemFont, 'Segoe UI', 'PingFang SC', Arial, sans-serif; font-size: 10px; fill: rgb(17, 24, 39); fill-opacity: 1; white-space: pre;" transform="translate(750,0)">90</text></g></g><g class="yaxislayer-above"><path class="ytick ticks crisp" d="M76.94999999999999,0h-5" transform="translate(0,551)" style="stroke: rgb(68, 68, 68); stroke-opacity: 1; stroke-width: 1px;"/><path class="ytick ticks crisp" d="M76.94999999999999,0h-5" transform="translate(0,452.52)" style="stroke: rgb(68, 68, 68); stroke-opacity: 1; stroke-width: 1px;"/><path class="ytick ticks crisp" d="M76.94999999999999,0h-5" transform="translate(0,354.05)" style="stroke: rgb(68, 68, 68); stroke-opacity: 1; stroke-width: 1px;"/><path class="ytick ticks crisp" d="M76.94999999999999,0h-5" transform="translate(0,255.57)" style="stroke: rgb(68, 68, 68); stroke-opacity: 1; stroke-width: 1px;"/><path class="ytick ticks crisp" d="M76.94999999999999,0h-5" transform="translate(0,157.1)" style="stroke: rgb(68, 68, 68); stroke-opacity: 1; stroke-width: 1px;"/><path class="ytick ticks crisp" d="M76.94999999999999,0h-5" transform="translate(0,58.620000000000005)" style="stroke: rgb(68, 68, 68); stroke-opacity: 1; stroke-width: 1px;"/><g class="ytick"><text text-anchor="end" x="69.94999999999999" y="3.5" transform="translate(0,551)" style="font-family: -apple-system, BlinkMacSystemFont, 'Segoe UI', 'PingFang SC', Arial, sans-serif; font-size: 10px; fill: rgb(17, 24, 39); fill-opacity: 1; white-space: pre;">0</text></g><g class="ytick"><text text-anchor="end" x="69.94999999999999" y="3.5" style="font-family: -apple-system, BlinkMacSystemFont, 'Segoe UI', 'PingFang SC', Arial, sans-serif; font-size: 10px; fill: rgb(17, 24, 39); fill-opacity: 1; white-space: pre;" transform="translate(0,452.52)">20</text></g><g class="ytick"><text text-anchor="end" x="69.94999999999999" y="3.5" style="font-family: -apple-system, BlinkMacSystemFont, 'Segoe UI', 'PingFang SC', Arial, sans-serif; font-size: 10px; fill: rgb(17, 24, 39); fill-opacity: 1; white-space: pre;" transform="translate(0,354.05)">40</text></g><g class="ytick"><text text-anchor="end" x="69.94999999999999" y="3.5" style="font-family: -apple-system, BlinkMacSystemFont, 'Segoe UI', 'PingFang SC', Arial, sans-serif; font-size: 10px; fill: rgb(17, 24, 39); fill-opacity: 1; white-space: pre;" transform="translate(0,255.57)">60</text></g><g class="ytick"><text text-anchor="end" x="69.94999999999999" y="3.5" style="font-family: -apple-system, BlinkMacSystemFont, 'Segoe UI', 'PingFang SC', Arial, sans-serif; font-size: 10px; fill: rgb(17, 24, 39); fill-opacity: 1; white-space: pre;" transform="translate(0,157.1)">80</text></g><g class="ytick"><text text-anchor="end" x="69.94999999999999" y="3.5" style="font-family: -apple-system, BlinkMacSystemFont, 'Segoe UI', 'PingFang SC', Arial, sans-serif; font-size: 10px; fill: rgb(17, 24, 39); fill-opacity: 1; white-space: pre;" transform="translate(0,58.620000000000005)">100</text></g></g><g class="overaxes-above"/></g></g><g class="polarlayer"/><g class="smithlayer"/><g class="ternarylayer"/><g class="geolayer"/><g class="funnelarealayer"/><g class="pielayer"/><g class="iciclelayer"/><g class="treemaplayer"/><g class="sunburstlayer"/><g class="glimages"/><defs id="topdefs-17bb72"><g class="clips"/><clipPath id="legend17bb72"><rect width="137" height="86" x="0" y="0"/></clipPath></defs><g class="layer-above"><g class="imagelayer"/><g class="shapelayer"><g class="shape-group" data-index="0" clip-path="url(#clip17bb72x)"><path data-index="0" fill-rule="evenodd" d="M414,551L414,34" style="opacity: 1; stroke: rgb(75, 85, 99); stroke-opacity: 0.76; fill: rgb(0, 0, 0); fill-opacity: 0; stroke-dasharray: 9px, 9px; stroke-width: 1.1px;"/></g></g></g><g class="infolayer"><g class="legend" pointer-events="all" transform="translate(763.44,34)"><rect class="bg" shape-rendering="crispEdges" width="137" height="86" x="0" y="0" style="stroke: rgb(68, 68, 68); stroke-opacity: 1; fill: rgb(0, 0, 0); fill-opacity: 0; stroke-width: 0px;"/><g class="scrollbox" transform="" clip-path="url(#legend17bb72)"><g class="groups"><g class="traces" transform="translate(0,14.5)" style="opacity: 1;"><text class="legendtext" text-anchor="start" x="40" y="4.29" style="font-family: -apple-system, BlinkMacSystemFont, 'Segoe UI', 'PingFang SC', Arial, sans-serif; font-size: 11px; fill: rgb(17, 24, 39); fill-opacity: 1; white-space: pre;">control_pct</text><g class="layers" style="opacity: 1;"><g class="legendfill"/><g class="legendlines"><path class="js-line" d="M5,0h30" style="fill: none; stroke: rgb(75, 85, 99); stroke-opacity: 1; stroke-width: 1.8px;"/></g><g class="legendsymbols"><g class="legendpoints"><path class="scatterpts" transform="translate(20,0)" d="M3.6,0A3.6,3.6 0 1,1 0,-3.6A3.6,3.6 0 0,1 3.6,0Z" style="opacity: 1; stroke-width: 1px; fill: rgb(75, 85, 99); fill-opacity: 1; stroke: rgb(252, 252, 249); stroke-opacity: 1;"/></g></g></g><rect class="legendtoggle" x="0" y="-9.5" width="131.7265625" height="19" style="fill: rgb(0, 0, 0); fill-opacity: 0;"/></g><g class="traces" transform="translate(0,33.5)" style="opacity: 1;"><text class="legendtext" text-anchor="start" x="40" y="4.29" style="font-family: -apple-system, BlinkMacSystemFont, 'Segoe UI', 'PingFang SC', Arial, sans-serif; font-size: 11px; fill: rgb(17, 24, 39); fill-opacity: 1; white-space: pre;">low_dose_pct</text><g class="layers" style="opacity: 1;"><g class="legendfill"/><g class="legendlines"><path class="js-line" d="M5,0h30" style="fill: none; stroke: rgb(0, 114, 178); stroke-opacity: 1; stroke-width: 2px;"/></g><g class="legendsymbols"><g class="legendpoints"><path class="scatterpts" transform="translate(20,0)" d="M3.6,0A3.6,3.6 0 1,1 0,-3.6A3.6,3.6 0 0,1 3.6,0Z" style="opacity: 1; stroke-width: 1px; fill: rgb(0, 114, 178); fill-opacity: 1; stroke: rgb(252, 252, 249); stroke-opacity: 1;"/></g></g></g><rect class="legendtoggle" x="0" y="-9.5" width="131.7265625" height="19" style="fill: rgb(0, 0, 0); fill-opacity: 0;"/></g><g class="traces" transform="translate(0,52.5)" style="opacity: 1;"><text class="legendtext" text-anchor="start" x="40" y="4.29" style="font-family: -apple-system, BlinkMacSystemFont, 'Segoe UI', 'PingFang SC', Arial, sans-serif; font-size: 11px; fill: rgb(17, 24, 39); fill-opacity: 1; white-space: pre;">high_dose_pct</text><g class="layers" style="opacity: 1;"><g class="legendfill"/><g class="legendlines"><path class="js-line" d="M5,0h30" style="fill: none; stroke: rgb(213, 94, 0); stroke-opacity: 1; stroke-dasharray: 9px, 9px; stroke-width: 2.1px;"/></g><g class="legendsymbols"><g class="legendpoints"><path class="scatterpts" transform="translate(20,0)" d="M3.6,0A3.6,3.6 0 1,1 0,-3.6A3.6,3.6 0 0,1 3.6,0Z" style="opacity: 1; stroke-width: 1px; fill: rgb(213, 94, 0); fill-opacity: 1; stroke: rgb(252, 252, 249); stroke-opacity: 1;"/></g></g></g><rect class="legendtoggle" x="0" y="-9.5" width="131.7265625" height="19" style="fill: rgb(0, 0, 0); fill-opacity: 0;"/></g><g class="traces" transform="translate(0,71.5)" style="opacity: 1;"><text class="legendtext" text-anchor="start" x="40" y="4.29" style="font-family: -apple-system, BlinkMacSystemFont, 'Segoe UI', 'PingFang SC', Arial, sans-serif; font-size: 11px; fill: rgb(17, 24, 39); fill-opacity: 1; white-space: pre;">pulse_recovery_pct</text><g class="layers" style="opacity: 1;"><g class="legendfill"/><g class="legendlines"><path class="js-line" d="M5,0h30" style="fill: none; stroke: rgb(0, 158, 115); stroke-opacity: 1; stroke-dasharray: 9px, 3px, 3px, 3px; stroke-width: 2.1px;"/></g><g class="legendsymbols"><g class="legendpoints"><path class="scatterpts" transform="translate(20,0)" d="M3.6,0A3.6,3.6 0 1,1 0,-3.6A3.6,3.6 0 0,1 3.6,0Z" style="opacity: 1; stroke-width: 1px; fill: rgb(0, 158, 115); fill-opacity: 1; stroke: rgb(252, 252, 249); stroke-opacity: 1;"/></g></g></g><rect class="legendtoggle" x="0" y="-9.5" width="131.7265625" height="19" style="fill: rgb(0, 0, 0); fill-opacity: 0;"/></g></g></g><rect class="scrollbar" rx="20" ry="3" width="0" height="0" x="0" y="0" style="fill: rgb(128, 139, 164); fill-opacity: 1;"/></g><g class="g-gtitle"/><g class="g-xtitle"><text class="xtitle" x="414" y="592.6248046875" text-anchor="middle" style="opacity: 1; font-family: -apple-system, BlinkMacSystemFont, 'Segoe UI', 'PingFang SC', Arial, sans-serif; font-size: 13px; fill: rgb(17, 24, 39); fill-opacity: 1; white-space: pre;">Time (min)</text></g><g class="g-ytitle"><text class="ytitle" transform="rotate(-90,37.75332031250001,292.5)" x="37.75332031250001" y="292.5" text-anchor="middle" style="opacity: 1; font-family: -apple-system, BlinkMacSystemFont, 'Segoe UI', 'PingFang SC', Arial, sans-serif; font-size: 13px; fill: rgb(17, 24, 39); fill-opacity: 1; white-space: pre;">Normalized response (%)</text></g><g class="annotation" data-index="0" style="opacity: 1;"><g class="annotation-text-g" transform="rotate(0,432,57.34000000000001)"><g class="cursor-pointer" transform="translate(414,44)"><rect class="bg" x="0.4" y="0.4" width="35.2" height="25.2" style="stroke-width: 0.8px; stroke: rgb(17, 24, 39); stroke-opacity: 0.22; fill: rgb(250, 250, 247); fill-opacity: 0.95;"/><text class="annotation-text" text-anchor="middle" x="17.378125" y="16.8" style="font-family: -apple-system, BlinkMacSystemFont, 'Segoe UI', 'PingFang SC', Arial, sans-serif; font-size: 10px; fill: rgb(75, 85, 99); fill-opacity: 1; white-space: pre;">Pulse</text></g></g></g></g></svg>