<svg class="main-svg" xmlns="http://www.w3.org/2000/svg" xmlns:xlink="http://www.w3.org/1999/xlink" width="936" height="615" style="" viewBox="0 0 936 615"><rect x="0" y="0" width="936" height="615" style="fill: rgb(250, 250, 247); fill-opacity: 1;"/><defs id="defs-1b1d36"><g class="clips"><clipPath id="clip1b1d36xyplot" class="plotclip"><rect width="822" height="455"/></clipPath><clipPath class="axesclip" id="clip1b1d36x"><rect x="78" y="0" width="822" height="615"/></clipPath><clipPath class="axesclip" id="clip1b1d36y"><rect x="0" y="96" width="936" height="455"/></clipPath><clipPath class="axesclip" id="clip1b1d36xy"><rect x="78" y="96" width="822" height="455"/></clipPath></g><g class="gradients"/><g class="patterns"/></defs><g class="bglayer"/><g class="layer-below"><g class="imagelayer"/><g class="shapelayer"/></g><g class="cartesianlayer"><g class="subplot xy"><g class="layer-subplot"><g class="shapelayer"/><g class="imagelayer"/></g><g class="minor-gridlayer"><g class="x"/><g class="y"/></g><g class="gridlayer"><g class="x"/><g class="y"/></g><g class="zerolinelayer"/><g class="layer-between"><g class="shapelayer"/><g class="imagelayer"/></g><path class="xlines-below"/><path class="ylines-below"/><g class="overlines-below"/><g class="xaxislayer-below"/><g class="yaxislayer-below"/><g class="overaxes-below"/><g class="overplot"><g class="xy" transform="translate(78,96)" clip-path="url(#clip1b1d36xyplot)"><g class="scatterlayer mlayer"><g class="trace scatter trace8e8509" style="stroke-miterlimit: 2; opacity: 1;"><g class="fills"/><g class="errorbars"><g class="errorbar"><path class="yerror" d="M-3,451.15h6m-3,0V455.35m-3,0h6" style="vector-effect: none; stroke-width: 1px; stroke: rgb(0, 114, 178); stroke-opacity: 1;"/></g><g class="errorbar"><path class="yerror" d="M79.2,407.4h6m-3,0V418.6m-3,0h6" style="vector-effect: none; stroke-width: 1px; stroke: rgb(0, 114, 178); stroke-opacity: 1;"/></g><g class="errorbar"><path class="yerror" d="M161.4,364.35h6m-3,0V376.95m-3,0h6" style="vector-effect: none; stroke-width: 1px; stroke: rgb(0, 114, 178); stroke-opacity: 1;"/></g><g class="errorbar"><path class="yerror" d="M243.6,322.35h6m-3,0V336.35m-3,0h6" style="vector-effect: none; stroke-width: 1px; stroke: rgb(0, 114, 178); stroke-opacity: 1;"/></g><g class="errorbar"><path class="yerror" d="M325.8,278.43h6m-3,0V295.23m-3,0h6" style="vector-effect: none; stroke-width: 1px; stroke: rgb(0, 114, 178); stroke-opacity: 1;"/></g><g class="errorbar"><path class="yerror" d="M408,236.25h6m-3,0V254.45m-3,0h6" style="vector-effect: none; stroke-width: 1px; stroke: rgb(0, 114, 178); stroke-opacity: 1;"/></g><g class="errorbar"><path class="yerror" d="M490.2,189.88h6m-3,0V210.88m-3,0h6" style="vector-effect: none; stroke-width: 1px; stroke: rgb(0, 114, 178); stroke-opacity: 1;"/></g><g class="errorbar"><path class="yerror" d="M572.4,147.35h6m-3,0V169.75m-3,0h6" style="vector-effect: none; stroke-width: 1px; stroke: rgb(0, 114, 178); stroke-opacity: 1;"/></g><g class="errorbar"><path class="yerror" d="M654.6,104.83h6m-3,0V130.02m-3,0h6" style="vector-effect: none; stroke-width: 1px; stroke: rgb(0, 114, 178); stroke-opacity: 1;"/></g><g class="errorbar"><path class="yerror" d="M736.8,60.02h6m-3,0V88.02m-3,0h6" style="vector-effect: none; stroke-width: 1px; stroke: rgb(0, 114, 178); stroke-opacity: 1;"/></g><g class="errorbar"><path class="yerror" d="M819,16.63h6m-3,0V47.43m-3,0h6" style="vector-effect: none; stroke-width: 1px; stroke: rgb(0, 114, 178); stroke-opacity: 1;"/></g></g><g class="lines"/><g class="points"><path class="point" transform="translate(0,453.25)" d="M4.2,0A4.2,4.2 0 1,1 0,-4.2A4.2,4.2 0 0,1 4.2,0Z" style="opacity: 1; stroke-width: 1.2px; fill: rgb(0, 114, 178); fill-opacity: 1; stroke: rgb(252, 252, 249); stroke-opacity: 1;"/><path class="point" transform="translate(82.2,413)" d="M4.2,0A4.2,4.2 0 1,1 0,-4.2A4.2,4.2 0 0,1 4.2,0Z" style="opacity: 1; stroke-width: 1.2px; fill: rgb(0, 114, 178); fill-opacity: 1; stroke: rgb(252, 252, 249); stroke-opacity: 1;"/><path class="point" transform="translate(164.4,370.65)" d="M4.2,0A4.2,4.2 0 1,1 0,-4.2A4.2,4.2 0 0,1 4.2,0Z" style="opacity: 1; stroke-width: 1.2px; fill: rgb(0, 114, 178); fill-opacity: 1; stroke: rgb(252, 252, 249); stroke-opacity: 1;"/><path class="point" transform="translate(246.6,329.35)" d="M4.2,0A4.2,4.2 0 1,1 0,-4.2A4.2,4.2 0 0,1 4.2,0Z" style="opacity: 1; stroke-width: 1.2px; fill: rgb(0, 114, 178); fill-opacity: 1; stroke: rgb(252, 252, 249); stroke-opacity: 1;"/><path class="point" transform="translate(328.8,286.83)" d="M4.2,0A4.2,4.2 0 1,1 0,-4.2A4.2,4.2 0 0,1 4.2,0Z" style="opacity: 1; stroke-width: 1.2px; fill: rgb(0, 114, 178); fill-opacity: 1; stroke: rgb(252, 252, 249); stroke-opacity: 1;"/><path class="point" transform="translate(411,245.35)" d="M4.2,0A4.2,4.2 0 1,1 0,-4.2A4.2,4.2 0 0,1 4.2,0Z" style="opacity: 1; stroke-width: 1.2px; fill: rgb(0, 114, 178); fill-opacity: 1; stroke: rgb(252, 252, 249); stroke-opacity: 1;"/><path class="point" transform="translate(493.2,200.38)" d="M4.2,0A4.2,4.2 0 1,1 0,-4.2A4.2,4.2 0 0,1 4.2,0Z" style="opacity: 1; stroke-width: 1.2px; fill: rgb(0, 114, 178); fill-opacity: 1; stroke: rgb(252, 252, 249); stroke-opacity: 1;"/><path class="point" transform="translate(575.4,158.55)" d="M4.2,0A4.2,4.2 0 1,1 0,-4.2A4.2,4.2 0 0,1 4.2,0Z" style="opacity: 1; stroke-width: 1.2px; fill: rgb(0, 114, 178); fill-opacity: 1; stroke: rgb(252, 252, 249); stroke-opacity: 1;"/><path class="point" transform="translate(657.6,117.43)" d="M4.2,0A4.2,4.2 0 1,1 0,-4.2A4.2,4.2 0 0,1 4.2,0Z" style="opacity: 1; stroke-width: 1.2px; fill: rgb(0, 114, 178); fill-opacity: 1; stroke: rgb(252, 252, 249); stroke-opacity: 1;"/><path class="point" transform="translate(739.8,74.02)" d="M4.2,0A4.2,4.2 0 1,1 0,-4.2A4.2,4.2 0 0,1 4.2,0Z" style="opacity: 1; stroke-width: 1.2px; fill: rgb(0, 114, 178); fill-opacity: 1; stroke: rgb(252, 252, 249); stroke-opacity: 1;"/><path class="point" transform="translate(822,32.03)" d="M4.2,0A4.2,4.2 0 1,1 0,-4.2A4.2,4.2 0 0,1 4.2,0Z" style="opacity: 1; stroke-width: 1.2px; fill: rgb(0, 114, 178); fill-opacity: 1; stroke: rgb(252, 252, 249); stroke-opacity: 1;"/></g><g class="text"/></g><g class="trace scatter trace4bd515" style="stroke-miterlimit: 2; opacity: 1;"><g class="fills"/><g class="errorbars"/><g class="lines"><path class="js-line" d="M0,455.06L822,32.36" style="vector-effect: none; fill: none; stroke: rgb(31, 41, 55); stroke-opacity: 1; stroke-dasharray: 9px, 9px; stroke-width: 2.3px; opacity: 1;"/></g><g class="points"/><g class="text"/></g></g></g></g><g class="zerolinelayer-above"/><path class="xlines-above crisp" d="M76.95,551.525H901.05M76.95,95.475H901.05" style="fill: none; stroke-width: 1.05px; stroke: rgb(17, 24, 39); stroke-opacity: 1;"/><path class="ylines-above crisp" d="M77.475,96V551M900.525,96V551" style="fill: none; stroke-width: 1.05px; stroke: rgb(17, 24, 39); stroke-opacity: 1;"/><g class="overlines-above"/><g class="xaxislayer-above"><path class="xtick ticks crisp" d="M0,552.05v5" transform="translate(78,0)" style="stroke: rgb(68, 68, 68); stroke-opacity: 1; stroke-width: 1px;"/><path class="xtick ticks crisp" d="M0,552.05v5" transform="translate(283.5,0)" style="stroke: rgb(68, 68, 68); stroke-opacity: 1; stroke-width: 1px;"/><path class="xtick ticks crisp" d="M0,552.05v5" transform="translate(489,0)" style="stroke: rgb(68, 68, 68); stroke-opacity: 1; stroke-width: 1px;"/><path class="xtick ticks crisp" d="M0,552.05v5" transform="translate(694.5,0)" style="stroke: rgb(68, 68, 68); stroke-opacity: 1; stroke-width: 1px;"/><path class="xtick ticks crisp" d="M0,552.05v5" transform="translate(900,0)" style="stroke: rgb(68, 68, 68); stroke-opacity: 1; stroke-width: 1px;"/><g class="xtick"><text text-anchor="middle" x="0" y="569.05" transform="translate(78,0)" style="font-family: -apple-system, BlinkMacSystemFont, 'Segoe UI', 'PingFang SC', Arial, sans-serif; font-size: 10px; fill: rgb(17, 24, 39); fill-opacity: 1; white-space: pre;">0</text></g><g class="xtick"><text text-anchor="middle" x="0" y="569.05" style="font-family: -apple-system, BlinkMacSystemFont, 'Segoe UI', 'PingFang SC', Arial, sans-serif; font-size: 10px; fill: rgb(17, 24, 39); fill-opacity: 1; white-space: pre;" transform="translate(283.5,0)">5</text></g><g class="xtick"><text text-anchor="middle" x="0" y="569.05" style="font-family: -apple-system, BlinkMacSystemFont, 'Segoe UI', 'PingFang SC', Arial, sans-serif; font-size: 10px; fill: rgb(17, 24, 39); fill-opacity: 1; white-space: pre;" transform="translate(489,0)">10</text></g><g class="xtick"><text text-anchor="middle" x="0" y="569.05" style="font-family: -apple-system, BlinkMacSystemFont, 'Segoe UI', 'PingFang SC', Arial, sans-serif; font-size: 10px; fill: rgb(17, 24, 39); fill-opacity: 1; white-space: pre;" transform="translate(694.5,0)">15</text></g><g class="xtick"><text text-anchor="middle" x="0" y="569.05" style="font-family: -apple-system, BlinkMacSystemFont, 'Segoe UI', 'PingFang SC', Arial, sans-serif; font-size: 10px; fill: rgb(17, 24, 39); fill-opacity: 1; white-space: pre;" transform="translate(900,0)">20</text></g></g><g class="yaxislayer-above"><path class="ytick ticks crisp" d="M76.94999999999999,0h-5" transform="translate(0,551)" style="stroke: rgb(68, 68, 68); stroke-opacity: 1; stroke-width: 1px;"/><path class="ytick ticks crisp" d="M76.94999999999999,0h-5" transform="translate(0,481)" style="stroke: rgb(68, 68, 68); stroke-opacity: 1; stroke-width: 1px;"/><path class="ytick ticks crisp" d="M76.94999999999999,0h-5" transform="translate(0,411)" style="stroke: rgb(68, 68, 68); stroke-opacity: 1; stroke-width: 1px;"/><path class="ytick ticks crisp" d="M76.94999999999999,0h-5" transform="translate(0,341)" style="stroke: rgb(68, 68, 68); stroke-opacity: 1; stroke-width: 1px;"/><path class="ytick ticks crisp" d="M76.94999999999999,0h-5" transform="translate(0,271)" style="stroke: rgb(68, 68, 68); stroke-opacity: 1; stroke-width: 1px;"/><path class="ytick ticks crisp" d="M76.94999999999999,0h-5" transform="translate(0,201)" style="stroke: rgb(68, 68, 68); stroke-opacity: 1; stroke-width: 1px;"/><path class="ytick ticks crisp" d="M76.94999999999999,0h-5" transform="translate(0,131)" style="stroke: rgb(68, 68, 68); stroke-opacity: 1; stroke-width: 1px;"/><g class="ytick"><text text-anchor="end" x="69.94999999999999" y="3.5" transform="translate(0,551)" style="font-family: -apple-system, BlinkMacSystemFont, 'Segoe UI', 'PingFang SC', Arial, sans-serif; font-size: 10px; fill: rgb(17, 24, 39); fill-opacity: 1; white-space: pre;">0</text></g><g class="ytick"><text text-anchor="end" x="69.94999999999999" y="3.5" style="font-family: -apple-system, BlinkMacSystemFont, 'Segoe UI', 'PingFang SC', Arial, sans-serif; font-size: 10px; fill: rgb(17, 24, 39); fill-opacity: 1; white-space: pre;" transform="translate(0,481)">0.2</text></g><g class="ytick"><text text-anchor="end" x="69.94999999999999" y="3.5" style="font-family: -apple-system, BlinkMacSystemFont, 'Segoe UI', 'PingFang SC', Arial, sans-serif; font-size: 10px; fill: rgb(17, 24, 39); fill-opacity: 1; white-space: pre;" transform="translate(0,411)">0.4</text></g><g class="ytick"><text text-anchor="end" x="69.94999999999999" y="3.5" style="font-family: -apple-system, BlinkMacSystemFont, 'Segoe UI', 'PingFang SC', Arial, sans-serif; font-size: 10px; fill: rgb(17, 24, 39); fill-opacity: 1; white-space: pre;" transform="translate(0,341)">0.6</text></g><g class="ytick"><text text-anchor="end" x="69.94999999999999" y="3.5" style="font-family: -apple-system, BlinkMacSystemFont, 'Segoe UI', 'PingFang SC', Arial, sans-serif; font-size: 10px; fill: rgb(17, 24, 39); fill-opacity: 1; white-space: pre;" transform="translate(0,271)">0.8</text></g><g class="ytick"><text text-anchor="end" x="69.94999999999999" y="3.5" style="font-family: -apple-system, BlinkMacSystemFont, 'Segoe UI', 'PingFang SC', Arial, sans-serif; font-size: 10px; fill: rgb(17, 24, 39); fill-opacity: 1; white-space: pre;" transform="translate(0,201)">1</text></g><g class="ytick"><text text-anchor="end" x="69.94999999999999" y="3.5" style="font-family: -apple-system, BlinkMacSystemFont, 'Segoe UI', 'PingFang SC', Arial, sans-serif; font-size: 10px; fill: rgb(17, 24, 39); fill-opacity: 1; white-space: pre;" transform="translate(0,131)">1.2</text></g></g><g class="overaxes-above"/></g></g><g class="polarlayer"/><g class="smithlayer"/><g class="ternarylayer"/><g class="geolayer"/><g class="funnelarealayer"/><g class="pielayer"/><g class="iciclelayer"/><g class="treemaplayer"/><g class="sunburstlayer"/><g class="glimages"/><defs id="topdefs-1b1d36"><g class="clips"/><clipPath id="legend1b1d36"><rect width="158" height="29" x="0" y="0"/></clipPath></defs><g class="layer-above"><g class="imagelayer"/><g class="shapelayer"><g class="shape-group" data-index="0" clip-path="url(#clip1b1d36x)"><path data-index="0" fill-rule="evenodd" d="M489,551L489,96" style="opacity: 1; stroke: rgb(75, 85, 99); stroke-opacity: 0.76; fill: rgb(0, 0, 0); fill-opacity: 0; stroke-dasharray: 9px, 9px; stroke-width: 1.1px;"/></g><g class="shape-group" data-index="1" clip-path="url(#clip1b1d36y)"><path data-index="1" fill-rule="evenodd" d="M78,341L900,341" style="opacity: 1; stroke: rgb(0, 114, 178); stroke-opacity: 0.72; fill: rgb(0, 0, 0); fill-opacity: 0; stroke-dasharray: 9px, 9px; stroke-width: 1.1px;"/></g></g></g><g class="infolayer"><g class="legend" pointer-events="all" transform="translate(78,12.399999999999949)"><rect class="bg" shape-rendering="crispEdges" width="158" height="29" x="0" y="0" style="stroke: rgb(68, 68, 68); stroke-opacity: 1; fill: rgb(0, 0, 0); fill-opacity: 0; stroke-width: 0px;"/><g class="scrollbox" transform="" clip-path="url(#legend1b1d36)"><g class="groups"><g class="traces" transform="translate(0,14.5)" style="opacity: 1;"><text class="legendtext" text-anchor="start" x="40" y="4.29" style="font-family: -apple-system, BlinkMacSystemFont, 'Segoe UI', 'PingFang SC', Arial, sans-serif; font-size: 11px; fill: rgb(17, 24, 39); fill-opacity: 1; white-space: pre;">Data</text><g class="layers" style="opacity: 1;"><g class="legendfill"/><g class="legendlines"/><g class="legendsymbols"><g class="legendpoints"><path class="scatterpts" transform="translate(20,0)" d="M4.2,0A4.2,4.2 0 1,1 0,-4.2A4.2,4.2 0 0,1 4.2,0Z" style="opacity: 1; stroke-width: 1.2px; fill: rgb(0, 114, 178); fill-opacity: 1; stroke: rgb(252, 252, 249); stroke-opacity: 1;"/></g></g></g><rect class="legendtoggle" x="0" y="-9.5" width="65.537109375" height="19" style="fill: rgb(0, 0, 0); fill-opacity: 0;"/></g><g class="traces" transform="translate(68.037109375,14.5)" style="opacity: 1;"><text class="legendtext" text-anchor="start" x="40" y="4.29" style="font-family: -apple-system, BlinkMacSystemFont, 'Segoe UI', 'PingFang SC', Arial, sans-serif; font-size: 11px; fill: rgb(17, 24, 39); fill-opacity: 1; white-space: pre;">Linear Fit</text><g class="layers" style="opacity: 1;"><g class="legendfill"/><g class="legendlines"><path class="js-line" d="M5,0h30" style="fill: none; stroke: rgb(31, 41, 55); stroke-opacity: 1; stroke-dasharray: 9px, 9px; stroke-width: 2.3px;"/></g><g class="legendsymbols"><g class="legendpoints"/></g></g><rect class="legendtoggle" x="0" y="-9.5" width="86.7890625" height="19" style="fill: rgb(0, 0, 0); fill-opacity: 0;"/></g></g></g><rect class="scrollbar" rx="20" ry="3" width="0" height="0" x="0" y="0" style="fill: rgb(128, 139, 164); fill-opacity: 1;"/></g><g class="g-gtitle"/><g class="g-xtitle"><text class="xtitle" x="489" y="592.6248046875" text-anchor="middle" style="opacity: 1; font-family: -apple-system, BlinkMacSystemFont, 'Segoe UI', 'PingFang SC', Arial, sans-serif; font-size: 13px; fill: rgb(17, 24, 39); fill-opacity: 1; white-space: pre;">Concentration (uM)</text></g><g class="g-ytitle"><text class="ytitle" transform="rotate(-90,40.97207031250001,323.5)" x="40.97207031250001" y="323.5" text-anchor="middle" style="opacity: 1; font-family: -apple-system, BlinkMacSystemFont, 'Segoe UI', 'PingFang SC', Arial, sans-serif; font-size: 13px; fill: rgb(17, 24, 39); fill-opacity: 1; white-space: pre;">Absorbance (a.u.)</text></g><g class="annotation" data-index="0" style="opacity: 1;"><g class="annotation-text-g" transform="rotate(0,167.94,127.60000000000001)"><g class="cursor-pointer" transform="translate(94,105)"><rect class="bg" x="0.4" y="0.4" width="146.2" height="44.2" style="stroke-width: 0.8px; stroke: rgb(17, 24, 39); stroke-opacity: 0.22; fill: rgb(250, 250, 247); fill-opacity: 0.95;"/><text class="annotation-text" text-anchor="start" x="8.8" y="18.8" style="font-family: SFMono-Regular, Menlo, Monaco, 'Cascadia Mono', 'Roboto Mono', Consolas, monospace; font-size: 11px; fill: rgb(17, 24, 39); fill-opacity: 1; white-space: pre;"><tspan class="line" dy="0em" x="8.8" y="18.8">y = 0.0604x - 0.0002</tspan><tspan class="line" dy="1.3em" x="8.8" y="18.8">R² = 0.999948</tspan></text></g></g></g><g class="annotation" data-index="1" style="opacity: 1;"><g class="annotation-text-g" transform="rotate(0,528.5,118.10000000000001)"><g class="cursor-pointer" transform="translate(489,105)"><rect class="bg" x="0.4" y="0.4" width="78.2" height="25.2" style="stroke-width: 0.8px; stroke: rgb(17, 24, 39); stroke-opacity: 0.22; fill: rgb(250, 250, 247); fill-opacity: 0.95;"/><text class="annotation-text" text-anchor="middle" x="39.1828125" y="16.8" style="font-family: -apple-system, BlinkMacSystemFont, 'Segoe UI', 'PingFang SC', Arial, sans-serif; font-size: 10px; fill: rgb(75, 85, 99); fill-opacity: 1; white-space: pre;">Midpoint X=10</text></g></g></g><g class="annotation" data-index="2" style="opacity: 1;"><g class="annotation-text-g" transform="rotate(0,843.06,328)"><g class="cursor-pointer" transform="translate(803,315)"><rect class="bg" x="0.4" y="0.4" width="80.2" height="25.2" style="stroke-width: 0.8px; stroke: rgb(17, 24, 39); stroke-opacity: 0.22; fill: rgb(250, 250, 247); fill-opacity: 0.95;"/><text class="annotation-text" text-anchor="middle" x="40.08125" y="16.8" style="font-family: -apple-system, BlinkMacSystemFont, 'Segoe UI', 'PingFang SC', Arial, sans-serif; font-size: 10px; fill: rgb(75, 85, 99); fill-opacity: 1; white-space: pre;">Midpoint Y=0.6</text></g></g></g></g></svg>